<?xml version="1.0" encoding="UTF-8"?>
<!DOCTYPE svg PUBLIC "-//W3C//DTD SVG 1.1//EN" "http://www.w3.org/Graphics/SVG/1.1/DTD/svg11.dtd">
<svg xmlns="http://www.w3.org/2000/svg" version="1.1" width="192px" height="185px" style="shape-rendering:geometricPrecision; text-rendering:geometricPrecision; image-rendering:optimizeQuality; fill-rule:evenodd; clip-rule:evenodd" xmlns:xlink="http://www.w3.org/1999/xlink">
<g><path style="opacity:1" fill="#644ef5" d="M 115.5,152.5 C 115.167,153.167 114.833,153.833 114.5,154.5C 107.188,162.146 99.8548,169.813 92.5,177.5C 85.8426,169.184 78.5092,161.517 70.5,154.5C 70.1667,153.833 69.8333,153.167 69.5,152.5C 80.4941,114.699 80.1608,77.0324 68.5,39.5C 76.8604,31.8063 84.8604,23.8063 92.5,15.5C 100.14,23.8063 108.14,31.8063 116.5,39.5C 104.839,77.0392 104.506,114.706 115.5,152.5 Z"/></g>
<g><path style="opacity:1" fill="#624cf1" d="M 52.5,51.5 C 53.5862,51.62 54.2528,52.2867 54.5,53.5C 61.4273,82.9371 61.094,112.27 53.5,141.5C 44.995,135.411 35.995,130.078 26.5,125.5C 26.1667,124.667 25.8333,123.833 25.5,123C 27.6106,114.118 28.944,105.118 29.5,96C 28.6895,86.3972 27.5228,76.8972 26,67.5C 35.3123,62.7693 44.1456,57.4359 52.5,51.5 Z"/></g>
<g><path style="opacity:1" fill="#624cf0" d="M 159.5,123.5 C 159.167,124.167 158.833,124.833 158.5,125.5C 149.507,129.995 140.84,134.995 132.5,140.5C 131.833,139.5 131.167,138.5 130.5,137.5C 126.313,119.398 124.979,101.065 126.5,82.5C 127.889,77.7312 128.556,72.7312 128.5,67.5C 128.64,61.9924 129.64,56.6591 131.5,51.5C 141.002,57.4189 150.669,63.0856 160.5,68.5C 157.217,77.5367 155.883,86.8701 156.5,96.5C 156.148,105.668 157.148,114.668 159.5,123.5 Z"/></g>
<g><path style="opacity:0.6" fill="#33287c" d="M 128.5,67.5 C 128.556,72.7312 127.889,77.7312 126.5,82.5C 126.444,77.2688 127.111,72.2688 128.5,67.5 Z"/></g>
<g><path style="opacity:0.029" fill="#130d20" d="M 159.5,123.5 C 160.757,124.623 160.424,125.289 158.5,125.5C 158.833,124.833 159.167,124.167 159.5,123.5 Z"/></g>
<g><path style="opacity:0.137" fill="#171437" d="M 130.5,137.5 C 131.167,138.5 131.833,139.5 132.5,140.5C 132.44,141.043 132.107,141.376 131.5,141.5C 130.571,140.311 130.238,138.978 130.5,137.5 Z"/></g>
<g><path style="opacity:0.016" fill="#120c1e" d="M 69.5,152.5 C 69.8333,153.167 70.1667,153.833 70.5,154.5C 68.5759,154.289 68.2426,153.623 69.5,152.5 Z"/></g>
<g><path style="opacity:0.016" fill="#150e22" d="M 115.5,152.5 C 116.757,153.623 116.424,154.289 114.5,154.5C 114.833,153.833 115.167,153.167 115.5,152.5 Z"/></g>
</svg>
