<?xml version="1.0" encoding="UTF-8" standalone="no" ?>
<!DOCTYPE svg PUBLIC "-//W3C//DTD SVG 1.1//EN" "http://www.w3.org/Graphics/SVG/1.1/DTD/svg11.dtd">
<svg xmlns="http://www.w3.org/2000/svg" xmlns:xlink="http://www.w3.org/1999/xlink" version="1.1" width="1080" height="1080" viewBox="0 0 1080 1080" xml:space="preserve">
<desc>Created with Fabric.js 5.2.4</desc>
<defs>
</defs>
<g transform="matrix(1 0 0 1 540 540)" id="a8bc7747-a4fa-4cb7-929f-5e55d20e1595"  >
<rect style="stroke: none; stroke-width: 1; stroke-dasharray: none; stroke-linecap: butt; stroke-dashoffset: 0; stroke-linejoin: miter; stroke-miterlimit: 4; fill: rgb(255,255,255); fill-rule: nonzero; opacity: 1; visibility: hidden;" vector-effect="non-scaling-stroke"  x="-540" y="-540" rx="0" ry="0" width="1080" height="1080" />
</g>
<g transform="matrix(1 0 0 1 540 540)" id="4bf8e058-8c80-42d1-a63d-f08a095b63b4"  >
</g>
<g transform="matrix(1 0 0 1 540 540)"  >
<g style="" vector-effect="non-scaling-stroke"   >
		<g transform="matrix(1 0 0 1 0 0)"  >
<path style="stroke: none; stroke-width: 1; stroke-dasharray: none; stroke-linecap: butt; stroke-dashoffset: 0; stroke-linejoin: miter; stroke-miterlimit: 4; fill: rgb(0,102,255); fill-rule: evenodd; opacity: 1;" vector-effect="non-scaling-stroke"  transform=" translate(-193.35, -450.5)" d="M 181.5 -0.5 C 189.5 -0.5 197.5 -0.5 205.5 -0.5 C 215.39 1.5779 224.723 5.24456 233.5 10.5 C 234.035 12.4456 235.368 13.4456 237.5 13.5 C 240.447 14.7805 242.781 16.7805 244.5 19.5 C 245.833 21.5 247.5 23.1667 249.5 24.5 C 250.833 25.1667 251.833 26.1667 252.5 27.5 C 252.427 29.0269 253.094 30.0269 254.5 30.5 C 254.738 32.4044 255.738 33.7377 257.5 34.5 C 258.338 34.8417 258.672 35.5084 258.5 36.5 C 258.427 38.0269 259.094 39.0269 260.5 39.5 C 262.008 41.1815 263.008 43.1815 263.5 45.5 C 263.12 47.698 263.787 49.3646 265.5 50.5 C 265.5 50.8333 265.5 51.1667 265.5 51.5 C 265.259 53.8984 265.926 55.8984 267.5 57.5 C 274.944 98.198 260.277 127.865 223.5 146.5 C 222.202 160.849 222.369 175.183 224 189.5 C 225.417 196.919 227.917 203.919 231.5 210.5 C 231.427 212.027 232.094 213.027 233.5 213.5 C 233.738 215.404 234.738 216.738 236.5 217.5 C 246.366 228.771 258.699 235.938 273.5 239 C 295.183 240.246 315.183 246.412 333.5 257.5 C 333.821 259.048 334.821 259.715 336.5 259.5 C 343.95 264.228 350.617 269.895 356.5 276.5 C 356.738 278.404 357.738 279.738 359.5 280.5 C 360.5 280.833 361.167 281.5 361.5 282.5 C 361.427 284.027 362.094 285.027 363.5 285.5 C 364.167 285.5 364.5 285.833 364.5 286.5 C 364.427 288.027 365.094 289.027 366.5 289.5 C 366.427 291.027 367.094 292.027 368.5 292.5 C 368.427 294.027 369.094 295.027 370.5 295.5 C 371.674 296.514 372.34 297.847 372.5 299.5 C 372.427 301.027 373.094 302.027 374.5 302.5 C 376.204 305.256 377.537 308.256 378.5 311.5 C 378.12 313.698 378.787 315.365 380.5 316.5 C 381.234 317.708 381.567 319.041 381.5 320.5 C 381.41 323.152 382.076 325.485 383.5 327.5 C 392.393 364.532 385.226 398.199 362 428.5 C 359.963 430.706 357.797 432.706 355.5 434.5 C 354.5 434.833 353.833 435.5 353.5 436.5 C 340.037 450.413 324.037 460.579 305.5 467 C 292.522 471.578 279.189 474.578 265.5 476 C 216.82 480.535 168.153 485.201 119.5 490 C 98.9456 493.187 82.1123 502.687 69 518.5 C 58.2213 537.57 57.7213 556.904 67.5 576.5 C 67.427 578.027 68.0937 579.027 69.5 579.5 C 69.427 581.027 70.0937 582.027 71.5 582.5 C 72.5 582.833 73.1667 583.5 73.5 584.5 C 74.1667 587.167 75.8333 588.833 78.5 589.5 C 80.1911 590.864 81.8577 592.197 83.5 593.5 C 83.8212 595.048 84.8212 595.715 86.5 595.5 C 91.0036 597.579 95.6703 599.412 100.5 601 C 113.317 602.519 125.984 604.852 138.5 608 C 148.071 611.121 157.071 615.288 165.5 620.5 C 165.821 622.048 166.821 622.715 168.5 622.5 C 169.71 622.932 170.71 623.599 171.5 624.5 C 172.035 626.446 173.368 627.446 175.5 627.5 C 178.784 629.117 181.451 631.45 183.5 634.5 C 184.262 636.262 185.596 637.262 187.5 637.5 C 188.419 640.089 190.086 642.089 192.5 643.5 C 193.833 644.167 194.833 645.167 195.5 646.5 C 195.738 648.404 196.738 649.738 198.5 650.5 C 198.738 652.404 199.738 653.738 201.5 654.5 C 201.427 656.027 202.094 657.027 203.5 657.5 C 203.427 659.027 204.094 660.027 205.5 660.5 C 205.427 662.027 206.094 663.027 207.5 663.5 C 208.674 664.514 209.34 665.847 209.5 667.5 C 209.427 669.027 210.094 670.027 211.5 670.5 C 218.357 683.582 222.524 697.582 224 712.5 C 224.167 726.845 224.667 741.178 225.5 755.5 C 226.86 756.18 228.193 756.847 229.5 757.5 C 229.821 759.048 230.821 759.715 232.5 759.5 C 240.01 763.336 246.344 768.669 251.5 775.5 C 251.738 777.404 252.738 778.738 254.5 779.5 C 254.427 781.027 255.094 782.027 256.5 782.5 C 257.906 782.973 258.573 783.973 258.5 785.5 C 258.427 787.027 259.094 788.027 260.5 788.5 C 264.196 794.248 266.53 800.581 267.5 807.5 C 267.646 811.387 268.313 815.054 269.5 818.5 C 271.697 839.907 265.697 858.574 251.5 874.5 C 250.094 874.973 249.427 875.973 249.5 877.5 C 237.425 890.205 222.758 898.205 205.5 901.5 C 197.5 901.5 189.5 901.5 181.5 901.5 C 172.323 899.551 163.657 896.218 155.5 891.5 C 155.027 890.094 154.027 889.427 152.5 889.5 C 149.63 888.567 147.296 886.9 145.5 884.5 C 144.738 882.738 143.404 881.738 141.5 881.5 C 136.713 878.052 133.046 873.719 130.5 868.5 C 130.446 866.368 129.446 865.035 127.5 864.5 C 116.281 844.753 113.947 824.087 120.5 802.5 C 122.074 800.898 122.741 798.898 122.5 796.5 C 123.659 792.849 125.326 789.515 127.5 786.5 C 128.906 786.027 129.573 785.027 129.5 783.5 C 131.262 782.738 132.262 781.404 132.5 779.5 C 133.906 779.027 134.573 778.027 134.5 776.5 C 135.167 775.167 136.167 774.167 137.5 773.5 C 139.5 772.167 141.167 770.5 142.5 768.5 C 142.833 767.5 143.5 766.833 144.5 766.5 C 146.404 766.262 147.738 765.262 148.5 763.5 C 150.027 763.573 151.027 762.906 151.5 761.5 C 153.027 761.573 154.027 760.906 154.5 759.5 C 156.849 757.659 159.515 756.326 162.5 755.5 C 163.829 749.872 164.496 743.872 164.5 737.5 C 164.5 731.324 164.166 725.324 163.5 719.5 C 162.281 712.293 160.281 705.293 157.5 698.5 C 157.715 696.821 157.048 695.821 155.5 695.5 C 155.5 695.167 155.5 694.833 155.5 694.5 C 155.446 692.368 154.446 691.035 152.5 690.5 C 151.512 689.205 150.512 687.872 149.5 686.5 C 149.262 684.596 148.262 683.262 146.5 682.5 C 145.5 682.167 144.833 681.5 144.5 680.5 C 143.415 678.413 141.749 677.08 139.5 676.5 C 138.833 676.5 138.5 676.167 138.5 675.5 C 138.027 674.094 137.027 673.427 135.5 673.5 C 134.508 673.672 133.842 673.338 133.5 672.5 C 133.027 671.094 132.027 670.427 130.5 670.5 C 127.673 669.892 125.007 668.892 122.5 667.5 C 121.365 665.787 119.698 665.12 117.5 665.5 C 107.263 664.476 97.2628 662.809 87.5 660.5 C 85.4855 659.076 83.1522 658.41 80.5 658.5 C 72.6194 656.656 65.2861 653.656 58.5 649.5 C 58.0269 648.094 57.0269 647.427 55.5 647.5 C 54.5084 647.672 53.8417 647.338 53.5 646.5 C 53.0269 645.094 52.0269 644.427 50.5 644.5 C 50.0269 643.094 49.0269 642.427 47.5 642.5 C 46.7377 640.738 45.4044 639.738 43.5 639.5 C 42.4154 637.413 40.7488 636.08 38.5 635.5 C 36.8333 634.5 35.5 633.167 34.5 631.5 C 33.8333 630.167 32.8333 629.167 31.5 628.5 C 18.4889 615.613 9.3222 600.28 4 582.5 C 2.4148 576.05 0.914796 569.717 -0.5 563.5 C -0.5 553.167 -0.5 542.833 -0.5 532.5 C 0.403972 531.791 0.737305 530.791 0.5 529.5 C 2.03954 527.162 2.70621 524.495 2.5 521.5 C 4.24232 511.03 7.90899 501.364 13.5 492.5 C 14.9063 492.027 15.573 491.027 15.5 489.5 C 15.3284 488.508 15.6618 487.842 16.5 487.5 C 17.9063 487.027 18.573 486.027 18.5 484.5 C 20.2624 483.738 21.2624 482.404 21.5 480.5 C 22.9063 480.027 23.573 479.027 23.5 477.5 C 23.8333 476.5 24.5 475.833 25.5 475.5 C 26.9063 475.027 27.573 474.027 27.5 472.5 C 29.1667 470.167 31.1667 468.167 33.5 466.5 C 36.4274 465.243 38.7607 463.243 40.5 460.5 C 42.7488 459.92 44.4154 458.587 45.5 456.5 C 47.4044 456.262 48.7377 455.262 49.5 453.5 C 51.0269 453.573 52.0269 452.906 52.5 451.5 C 52.8417 450.662 53.5084 450.328 54.5 450.5 C 56.0269 450.573 57.0269 449.906 57.5 448.5 C 67.6493 441.928 78.6493 437.261 90.5 434.5 C 92.8984 434.741 94.8984 434.074 96.5 432.5 C 96.8333 432.5 97.1667 432.5 97.5 432.5 C 100.781 432.58 103.781 431.913 106.5 430.5 C 110.944 429.187 115.611 428.354 120.5 428 C 170.868 423.436 221.202 418.603 271.5 413.5 C 274.228 413.829 276.562 413.163 278.5 411.5 C 285.548 408.815 292.548 405.815 299.5 402.5 C 301.027 402.573 302.027 401.906 302.5 400.5 C 304.027 400.573 305.027 399.906 305.5 398.5 C 308.089 397.581 310.089 395.914 311.5 393.5 C 313.914 392.089 315.581 390.089 316.5 387.5 C 317.906 387.027 318.573 386.027 318.5 384.5 C 331.322 358.25 327.655 334.583 307.5 313.5 C 306.738 311.738 305.404 310.738 303.5 310.5 C 303.027 309.094 302.027 308.427 300.5 308.5 C 296.855 307.013 293.188 305.513 289.5 304 C 278.203 301.815 266.87 299.815 255.5 298 C 251.891 297.299 248.558 296.132 245.5 294.5 C 243.898 292.926 241.898 292.259 239.5 292.5 C 234.738 291.284 230.405 289.284 226.5 286.5 C 226.027 285.094 225.027 284.427 223.5 284.5 C 222.508 284.672 221.842 284.338 221.5 283.5 C 221.027 282.094 220.027 281.427 218.5 281.5 C 218.027 280.094 217.027 279.427 215.5 279.5 C 213.596 279.262 212.262 278.262 211.5 276.5 C 211.027 275.094 210.027 274.427 208.5 274.5 C 207.833 274.5 207.5 274.167 207.5 273.5 C 206.738 271.738 205.404 270.738 203.5 270.5 C 196.418 264.754 190.418 258.087 185.5 250.5 C 185.446 248.368 184.446 247.035 182.5 246.5 C 182.715 244.821 182.048 243.821 180.5 243.5 C 169.461 226.215 163.295 207.215 162 186.5 C 161.833 172.821 161.333 159.154 160.5 145.5 C 157.262 143.725 154.262 141.725 151.5 139.5 C 151.027 138.094 150.027 137.427 148.5 137.5 C 148.027 136.094 147.027 135.427 145.5 135.5 C 144.5 135.167 143.833 134.5 143.5 133.5 C 142.738 131.738 141.404 130.738 139.5 130.5 C 138.92 128.251 137.587 126.585 135.5 125.5 C 119.256 106.839 113.423 85.1726 118 60.5 C 119.489 52.5422 122.322 45.2088 126.5 38.5 C 127.906 38.0269 128.573 37.0269 128.5 35.5 C 129.906 35.0269 130.573 34.0269 130.5 32.5 C 130.738 30.5956 131.738 29.2623 133.5 28.5 C 135.262 27.7377 136.262 26.4044 136.5 24.5 C 137.833 22.5 139.5 20.8333 141.5 19.5 C 143.749 18.9202 145.415 17.5869 146.5 15.5 C 148.404 15.2624 149.738 14.2624 150.5 12.5 C 152.027 12.573 153.027 11.9063 153.5 10.5 C 162.092 4.8598 171.426 1.19314 181.5 -0.5 Z" stroke-linecap="round" />
</g>
		<g transform="matrix(1 0 0 1 -41.35 -439)"  >
<path style="stroke: none; stroke-width: 1; stroke-dasharray: none; stroke-linecap: butt; stroke-dashoffset: 0; stroke-linejoin: miter; stroke-miterlimit: 4; fill: rgb(0,102,255); fill-rule: evenodd; opacity: 0.749;" vector-effect="non-scaling-stroke"  transform=" translate(-152, -11.5)" d="M 153.5 10.5 C 153.027 11.9063 152.027 12.573 150.5 12.5 C 150.973 11.0937 151.973 10.427 153.5 10.5 Z" stroke-linecap="round" />
</g>
		<g transform="matrix(1 0 0 1 42.15 -438.5)"  >
<path style="stroke: none; stroke-width: 1; stroke-dasharray: none; stroke-linecap: butt; stroke-dashoffset: 0; stroke-linejoin: miter; stroke-miterlimit: 4; fill: rgb(0,102,255); fill-rule: evenodd; opacity: 0.941;" vector-effect="non-scaling-stroke"  transform=" translate(-235.5, -12)" d="M 233.5 10.5 C 235.23 11.0256 236.564 12.0256 237.5 13.5 C 235.368 13.4456 234.035 12.4456 233.5 10.5 Z" stroke-linecap="round" />
</g>
		<g transform="matrix(1 0 0 1 -44.85 -436.5)"  >
<path style="stroke: none; stroke-width: 1; stroke-dasharray: none; stroke-linecap: butt; stroke-dashoffset: 0; stroke-linejoin: miter; stroke-miterlimit: 4; fill: rgb(0,102,255); fill-rule: evenodd; opacity: 0.714;" vector-effect="non-scaling-stroke"  transform=" translate(-148.5, -14)" d="M 150.5 12.5 C 149.738 14.2624 148.404 15.2624 146.5 15.5 C 147.262 13.7376 148.596 12.7376 150.5 12.5 Z" stroke-linecap="round" />
</g>
		<g transform="matrix(1 0 0 1 -49.35 -433)"  >
<path style="stroke: none; stroke-width: 1; stroke-dasharray: none; stroke-linecap: butt; stroke-dashoffset: 0; stroke-linejoin: miter; stroke-miterlimit: 4; fill: rgb(0,102,255); fill-rule: evenodd; opacity: 0.894;" vector-effect="non-scaling-stroke"  transform=" translate(-144, -17.5)" d="M 146.5 15.5 C 145.415 17.5869 143.749 18.9202 141.5 19.5 C 142.585 17.4131 144.251 16.0798 146.5 15.5 Z" stroke-linecap="round" />
</g>
		<g transform="matrix(1 0 0 1 53.65 -428.5)"  >
<path style="stroke: none; stroke-width: 1; stroke-dasharray: none; stroke-linecap: butt; stroke-dashoffset: 0; stroke-linejoin: miter; stroke-miterlimit: 4; fill: rgb(0,102,255); fill-rule: evenodd; opacity: 0.008;" vector-effect="non-scaling-stroke"  transform=" translate(-247, -22)" d="M 244.5 19.5 C 247.167 20.1667 248.833 21.8333 249.5 24.5 C 247.5 23.1667 245.833 21.5 244.5 19.5 Z" stroke-linecap="round" />
</g>
		<g transform="matrix(1 0 0 1 -58.35 -424)"  >
<path style="stroke: none; stroke-width: 1; stroke-dasharray: none; stroke-linecap: butt; stroke-dashoffset: 0; stroke-linejoin: miter; stroke-miterlimit: 4; fill: rgb(0,102,255); fill-rule: evenodd; opacity: 0.855;" vector-effect="non-scaling-stroke"  transform=" translate(-135, -26.5)" d="M 136.5 24.5 C 136.262 26.4044 135.262 27.7377 133.5 28.5 C 133.738 26.5956 134.738 25.2623 136.5 24.5 Z" stroke-linecap="round" />
</g>
		<g transform="matrix(1 0 0 1 60.15 -421.5)"  >
<path style="stroke: none; stroke-width: 1; stroke-dasharray: none; stroke-linecap: butt; stroke-dashoffset: 0; stroke-linejoin: miter; stroke-miterlimit: 4; fill: rgb(0,102,255); fill-rule: evenodd; opacity: 0.608;" vector-effect="non-scaling-stroke"  transform=" translate(-253.5, -29)" d="M 252.5 27.5 C 253.906 27.9731 254.573 28.9731 254.5 30.5 C 253.094 30.0269 252.427 29.0269 252.5 27.5 Z" stroke-linecap="round" />
</g>
		<g transform="matrix(1 0 0 1 62.65 -418)"  >
<path style="stroke: none; stroke-width: 1; stroke-dasharray: none; stroke-linecap: butt; stroke-dashoffset: 0; stroke-linejoin: miter; stroke-miterlimit: 4; fill: rgb(0,102,255); fill-rule: evenodd; opacity: 0.937;" vector-effect="non-scaling-stroke"  transform=" translate(-256, -32.5)" d="M 254.5 30.5 C 256.262 31.2623 257.262 32.5956 257.5 34.5 C 255.738 33.7377 254.738 32.4044 254.5 30.5 Z" stroke-linecap="round" />
</g>
		<g transform="matrix(1 0 0 1 -63.85 -416.5)"  >
<path style="stroke: none; stroke-width: 1; stroke-dasharray: none; stroke-linecap: butt; stroke-dashoffset: 0; stroke-linejoin: miter; stroke-miterlimit: 4; fill: rgb(0,102,255); fill-rule: evenodd; opacity: 0.639;" vector-effect="non-scaling-stroke"  transform=" translate(-129.5, -34)" d="M 130.5 32.5 C 130.573 34.0269 129.906 35.0269 128.5 35.5 C 128.427 33.9731 129.094 32.9731 130.5 32.5 Z" stroke-linecap="round" />
</g>
		<g transform="matrix(1 0 0 1 -65.85 -413.5)"  >
<path style="stroke: none; stroke-width: 1; stroke-dasharray: none; stroke-linecap: butt; stroke-dashoffset: 0; stroke-linejoin: miter; stroke-miterlimit: 4; fill: rgb(0,102,255); fill-rule: evenodd; opacity: 0.455;" vector-effect="non-scaling-stroke"  transform=" translate(-127.5, -37)" d="M 128.5 35.5 C 128.573 37.0269 127.906 38.0269 126.5 38.5 C 126.427 36.9731 127.094 35.9731 128.5 35.5 Z" stroke-linecap="round" />
</g>
		<g transform="matrix(1 0 0 1 66.15 -412.5)"  >
<path style="stroke: none; stroke-width: 1; stroke-dasharray: none; stroke-linecap: butt; stroke-dashoffset: 0; stroke-linejoin: miter; stroke-miterlimit: 4; fill: rgb(0,102,255); fill-rule: evenodd; opacity: 0.439;" vector-effect="non-scaling-stroke"  transform=" translate(-259.5, -38)" d="M 258.5 36.5 C 259.906 36.9731 260.573 37.9731 260.5 39.5 C 259.094 39.0269 258.427 38.0269 258.5 36.5 Z" stroke-linecap="round" />
</g>
		<g transform="matrix(1 0 0 1 71.1 -402.5)"  >
<path style="stroke: none; stroke-width: 1; stroke-dasharray: none; stroke-linecap: butt; stroke-dashoffset: 0; stroke-linejoin: miter; stroke-miterlimit: 4; fill: rgb(0,102,255); fill-rule: evenodd; opacity: 0.976;" vector-effect="non-scaling-stroke"  transform=" translate(-264.45, -48)" d="M 263.5 45.5 C 264.537 46.9303 265.204 48.597 265.5 50.5 C 263.787 49.3646 263.12 47.698 263.5 45.5 Z" stroke-linecap="round" />
</g>
		<g transform="matrix(1 0 0 1 73.13 -396)"  >
<path style="stroke: none; stroke-width: 1; stroke-dasharray: none; stroke-linecap: butt; stroke-dashoffset: 0; stroke-linejoin: miter; stroke-miterlimit: 4; fill: rgb(0,102,255); fill-rule: evenodd; opacity: 0.976;" vector-effect="non-scaling-stroke"  transform=" translate(-266.48, -54.5)" d="M 265.5 51.5 C 266.738 53.2143 267.405 55.2143 267.5 57.5 C 265.926 55.8984 265.259 53.8984 265.5 51.5 Z" stroke-linecap="round" />
</g>
		<g transform="matrix(1 0 0 1 -55.85 -322.5)"  >
<path style="stroke: none; stroke-width: 1; stroke-dasharray: none; stroke-linecap: butt; stroke-dashoffset: 0; stroke-linejoin: miter; stroke-miterlimit: 4; fill: rgb(0,102,255); fill-rule: evenodd; opacity: 0.008;" vector-effect="non-scaling-stroke"  transform=" translate(-137.5, -128)" d="M 135.5 125.5 C 137.587 126.585 138.92 128.251 139.5 130.5 C 137.413 129.415 136.08 127.749 135.5 125.5 Z" stroke-linecap="round" />
</g>
		<g transform="matrix(1 0 0 1 -51.85 -318.5)"  >
<path style="stroke: none; stroke-width: 1; stroke-dasharray: none; stroke-linecap: butt; stroke-dashoffset: 0; stroke-linejoin: miter; stroke-miterlimit: 4; fill: rgb(0,102,255); fill-rule: evenodd; opacity: 0.698;" vector-effect="non-scaling-stroke"  transform=" translate(-141.5, -132)" d="M 139.5 130.5 C 141.404 130.738 142.738 131.738 143.5 133.5 C 141.596 133.262 140.262 132.262 139.5 130.5 Z" stroke-linecap="round" />
</g>
		<g transform="matrix(1 0 0 1 -46.35 -314)"  >
<path style="stroke: none; stroke-width: 1; stroke-dasharray: none; stroke-linecap: butt; stroke-dashoffset: 0; stroke-linejoin: miter; stroke-miterlimit: 4; fill: rgb(0,102,255); fill-rule: evenodd; opacity: 0.604;" vector-effect="non-scaling-stroke"  transform=" translate(-147, -136.5)" d="M 145.5 135.5 C 147.027 135.427 148.027 136.094 148.5 137.5 C 146.973 137.573 145.973 136.906 145.5 135.5 Z" stroke-linecap="round" />
</g>
		<g transform="matrix(1 0 0 1 -43.35 -312)"  >
<path style="stroke: none; stroke-width: 1; stroke-dasharray: none; stroke-linecap: butt; stroke-dashoffset: 0; stroke-linejoin: miter; stroke-miterlimit: 4; fill: rgb(0,102,255); fill-rule: evenodd; opacity: 0.675;" vector-effect="non-scaling-stroke"  transform=" translate(-150, -138.5)" d="M 148.5 137.5 C 150.027 137.427 151.027 138.094 151.5 139.5 C 149.973 139.573 148.973 138.906 148.5 137.5 Z" stroke-linecap="round" />
</g>
		<g transform="matrix(1 0 0 1 39.15 -238.5)"  >
<path style="stroke: none; stroke-width: 1; stroke-dasharray: none; stroke-linecap: butt; stroke-dashoffset: 0; stroke-linejoin: miter; stroke-miterlimit: 4; fill: rgb(0,102,255); fill-rule: evenodd; opacity: 0.592;" vector-effect="non-scaling-stroke"  transform=" translate(-232.5, -212)" d="M 231.5 210.5 C 232.906 210.973 233.573 211.973 233.5 213.5 C 232.094 213.027 231.427 212.027 231.5 210.5 Z" stroke-linecap="round" />
</g>
		<g transform="matrix(1 0 0 1 41.65 -235)"  >
<path style="stroke: none; stroke-width: 1; stroke-dasharray: none; stroke-linecap: butt; stroke-dashoffset: 0; stroke-linejoin: miter; stroke-miterlimit: 4; fill: rgb(0,102,255); fill-rule: evenodd; opacity: 0.882;" vector-effect="non-scaling-stroke"  transform=" translate(-235, -215.5)" d="M 233.5 213.5 C 235.262 214.262 236.262 215.596 236.5 217.5 C 234.738 216.738 233.738 215.404 233.5 213.5 Z" stroke-linecap="round" />
</g>
		<g transform="matrix(1 0 0 1 -159.41 -226.5)"  >
<path style="stroke: none; stroke-width: 1; stroke-dasharray: none; stroke-linecap: butt; stroke-dashoffset: 0; stroke-linejoin: miter; stroke-miterlimit: 4; fill: rgb(0,102,255); fill-rule: evenodd; opacity: 0.667;" vector-effect="non-scaling-stroke"  transform=" translate(-33.94, -224)" d="M 64.5 225.5 C 63.5269 223.052 63.1936 220.385 63.5 217.5 C 43.8333 217.5 24.1667 217.5 4.5 217.5 C 4.5 222.167 4.5 226.833 4.5 231.5 C 3.51283 226.695 3.17949 221.695 3.5 216.5 C 23.8333 216.5 44.1667 216.5 64.5 216.5 C 64.5 219.5 64.5 222.5 64.5 225.5 Z" stroke-linecap="round" />
</g>
		<g transform="matrix(1 0 0 1 -105.85 -145)"  >
<path style="stroke: none; stroke-width: 1; stroke-dasharray: none; stroke-linecap: butt; stroke-dashoffset: 0; stroke-linejoin: miter; stroke-miterlimit: 4; fill: rgb(0,102,255); fill-rule: evenodd; opacity: 1;" vector-effect="non-scaling-stroke"  transform=" translate(-87.5, -305.5)" d="M 64.5 225.5 C 65.6111 233.5 66.9444 241.5 68.5 249.5 C 68.1706 252.228 68.8372 254.562 70.5 256.5 C 71.404 257.209 71.7373 258.209 71.5 259.5 C 71.1201 261.698 71.7868 263.365 73.5 264.5 C 75.3908 267.614 76.7241 270.948 77.5 274.5 C 77.427 276.027 78.0937 277.027 79.5 277.5 C 81.0075 279.181 82.0075 281.181 82.5 283.5 C 82.427 285.027 83.0937 286.027 84.5 286.5 C 84.427 288.027 85.0937 289.027 86.5 289.5 C 86.427 291.027 87.0937 292.027 88.5 292.5 C 88.427 294.027 89.0937 295.027 90.5 295.5 C 91.1667 295.5 91.5 295.833 91.5 296.5 C 91.7376 298.404 92.7376 299.738 94.5 300.5 C 96.1667 301.5 97.5 302.833 98.5 304.5 C 98.7376 306.404 99.7376 307.738 101.5 308.5 C 103.833 310.167 105.833 312.167 107.5 314.5 C 108.419 317.089 110.086 319.089 112.5 320.5 C 114.5 321.833 116.167 323.5 117.5 325.5 C 118.419 328.089 120.086 330.089 122.5 331.5 C 124.833 333.167 126.833 335.167 128.5 337.5 C 129.08 339.749 130.413 341.415 132.5 342.5 C 135.5 344.833 138.167 347.5 140.5 350.5 C 140.738 352.404 141.738 353.738 143.5 354.5 C 146.167 356.5 148.5 358.833 150.5 361.5 C 150.738 363.404 151.738 364.738 153.5 365.5 C 156.5 367.833 159.167 370.5 161.5 373.5 C 161.738 375.404 162.738 376.738 164.5 377.5 C 166.833 379.167 168.833 381.167 170.5 383.5 C 167.833 384.167 165.167 384.833 162.5 385.5 C 140.582 387.477 118.749 390.144 97 393.5 C 94.6278 391.297 92.4611 388.963 90.5 386.5 C 90.573 384.973 89.9063 383.973 88.5 383.5 C 85.5 381.167 82.8333 378.5 80.5 375.5 C 80.573 373.973 79.9063 372.973 78.5 372.5 C 75.5 370.167 72.8333 367.5 70.5 364.5 C 70.2624 362.596 69.2624 361.262 67.5 360.5 C 64.5 358.167 61.8333 355.5 59.5 352.5 C 59.573 350.973 58.9063 349.973 57.5 349.5 C 48.0691 340.634 40.0691 330.634 33.5 319.5 C 33.7148 317.821 33.0481 316.821 31.5 316.5 C 30.6618 316.158 30.3284 315.492 30.5 314.5 C 30.7148 312.821 30.0481 311.821 28.5 311.5 C 14.2519 286.752 6.25187 260.085 4.5 231.5 C 4.5 226.833 4.5 222.167 4.5 217.5 C 24.1667 217.5 43.8333 217.5 63.5 217.5 C 63.1936 220.385 63.5269 223.052 64.5 225.5 Z" stroke-linecap="round" />
</g>
		<g transform="matrix(1 0 0 1 -11.83 -205.5)"  >
<path style="stroke: none; stroke-width: 1; stroke-dasharray: none; stroke-linecap: butt; stroke-dashoffset: 0; stroke-linejoin: miter; stroke-miterlimit: 4; fill: rgb(0,102,255); fill-rule: evenodd; opacity: 0.976;" vector-effect="non-scaling-stroke"  transform=" translate(-181.52, -245)" d="M 180.5 243.5 C 182.048 243.821 182.715 244.821 182.5 246.5 C 181.599 245.71 180.932 244.71 180.5 243.5 Z" stroke-linecap="round" />
</g>
		<g transform="matrix(1 0 0 1 -9.35 -202)"  >
<path style="stroke: none; stroke-width: 1; stroke-dasharray: none; stroke-linecap: butt; stroke-dashoffset: 0; stroke-linejoin: miter; stroke-miterlimit: 4; fill: rgb(0,102,255); fill-rule: evenodd; opacity: 0.98;" vector-effect="non-scaling-stroke"  transform=" translate(-184, -248.5)" d="M 182.5 246.5 C 184.446 247.035 185.446 248.368 185.5 250.5 C 184.026 249.564 183.026 248.23 182.5 246.5 Z" stroke-linecap="round" />
</g>
		<g transform="matrix(1 0 0 1 -123.89 -197.5)"  >
<path style="stroke: none; stroke-width: 1; stroke-dasharray: none; stroke-linecap: butt; stroke-dashoffset: 0; stroke-linejoin: miter; stroke-miterlimit: 4; fill: rgb(0,102,255); fill-rule: evenodd; opacity: 0.973;" vector-effect="non-scaling-stroke"  transform=" translate(-69.46, -253)" d="M 68.5 249.5 C 69.6118 251.599 70.2785 253.933 70.5 256.5 C 68.8372 254.562 68.1706 252.228 68.5 249.5 Z" stroke-linecap="round" />
</g>
		<g transform="matrix(1 0 0 1 141.65 -191.98)"  >
<path style="stroke: none; stroke-width: 1; stroke-dasharray: none; stroke-linecap: butt; stroke-dashoffset: 0; stroke-linejoin: miter; stroke-miterlimit: 4; fill: rgb(0,102,255); fill-rule: evenodd; opacity: 0.98;" vector-effect="non-scaling-stroke"  transform=" translate(-335, -258.52)" d="M 333.5 257.5 C 334.71 257.932 335.71 258.599 336.5 259.5 C 334.821 259.715 333.821 259.048 333.5 257.5 Z" stroke-linecap="round" />
</g>
		<g transform="matrix(1 0 0 1 -120.9 -188.5)"  >
<path style="stroke: none; stroke-width: 1; stroke-dasharray: none; stroke-linecap: butt; stroke-dashoffset: 0; stroke-linejoin: miter; stroke-miterlimit: 4; fill: rgb(0,102,255); fill-rule: evenodd; opacity: 0.976;" vector-effect="non-scaling-stroke"  transform=" translate(-72.45, -262)" d="M 71.5 259.5 C 72.5375 260.93 73.2041 262.597 73.5 264.5 C 71.7868 263.365 71.1201 261.698 71.5 259.5 Z" stroke-linecap="round" />
</g>
		<g transform="matrix(1 0 0 1 12.15 -178.5)"  >
<path style="stroke: none; stroke-width: 1; stroke-dasharray: none; stroke-linecap: butt; stroke-dashoffset: 0; stroke-linejoin: miter; stroke-miterlimit: 4; fill: rgb(0,102,255); fill-rule: evenodd; opacity: 0.8;" vector-effect="non-scaling-stroke"  transform=" translate(-205.5, -272)" d="M 203.5 270.5 C 205.404 270.738 206.738 271.738 207.5 273.5 C 205.596 273.262 204.262 272.262 203.5 270.5 Z" stroke-linecap="round" />
</g>
		<g transform="matrix(1 0 0 1 16.65 -175)"  >
<path style="stroke: none; stroke-width: 1; stroke-dasharray: none; stroke-linecap: butt; stroke-dashoffset: 0; stroke-linejoin: miter; stroke-miterlimit: 4; fill: rgb(0,102,255); fill-rule: evenodd; opacity: 0.651;" vector-effect="non-scaling-stroke"  transform=" translate(-210, -275.5)" d="M 208.5 274.5 C 210.027 274.427 211.027 275.094 211.5 276.5 C 209.973 276.573 208.973 275.906 208.5 274.5 Z" stroke-linecap="round" />
</g>
		<g transform="matrix(1 0 0 1 -114.85 -174.5)"  >
<path style="stroke: none; stroke-width: 1; stroke-dasharray: none; stroke-linecap: butt; stroke-dashoffset: 0; stroke-linejoin: miter; stroke-miterlimit: 4; fill: rgb(0,102,255); fill-rule: evenodd; opacity: 0.31;" vector-effect="non-scaling-stroke"  transform=" translate(-78.5, -276)" d="M 77.5 274.5 C 78.9063 274.973 79.573 275.973 79.5 277.5 C 78.0937 277.027 77.427 276.027 77.5 274.5 Z" stroke-linecap="round" />
</g>
		<g transform="matrix(1 0 0 1 164.65 -172)"  >
<path style="stroke: none; stroke-width: 1; stroke-dasharray: none; stroke-linecap: butt; stroke-dashoffset: 0; stroke-linejoin: miter; stroke-miterlimit: 4; fill: rgb(0,102,255); fill-rule: evenodd; opacity: 0.776;" vector-effect="non-scaling-stroke"  transform=" translate(-358, -278.5)" d="M 356.5 276.5 C 358.262 277.262 359.262 278.596 359.5 280.5 C 357.738 279.738 356.738 278.404 356.5 276.5 Z" stroke-linecap="round" />
</g>
		<g transform="matrix(1 0 0 1 23.65 -170)"  >
<path style="stroke: none; stroke-width: 1; stroke-dasharray: none; stroke-linecap: butt; stroke-dashoffset: 0; stroke-linejoin: miter; stroke-miterlimit: 4; fill: rgb(0,102,255); fill-rule: evenodd; opacity: 0.596;" vector-effect="non-scaling-stroke"  transform=" translate(-217, -280.5)" d="M 215.5 279.5 C 217.027 279.427 218.027 280.094 218.5 281.5 C 216.973 281.573 215.973 280.906 215.5 279.5 Z" stroke-linecap="round" />
</g>
		<g transform="matrix(1 0 0 1 26.65 -168)"  >
<path style="stroke: none; stroke-width: 1; stroke-dasharray: none; stroke-linecap: butt; stroke-dashoffset: 0; stroke-linejoin: miter; stroke-miterlimit: 4; fill: rgb(0,102,255); fill-rule: evenodd; opacity: 0.435;" vector-effect="non-scaling-stroke"  transform=" translate(-220, -282.5)" d="M 218.5 281.5 C 220.027 281.427 221.027 282.094 221.5 283.5 C 219.973 283.573 218.973 282.906 218.5 281.5 Z" stroke-linecap="round" />
</g>
		<g transform="matrix(1 0 0 1 169.15 -166.5)"  >
<path style="stroke: none; stroke-width: 1; stroke-dasharray: none; stroke-linecap: butt; stroke-dashoffset: 0; stroke-linejoin: miter; stroke-miterlimit: 4; fill: rgb(0,102,255); fill-rule: evenodd; opacity: 0.616;" vector-effect="non-scaling-stroke"  transform=" translate(-362.5, -284)" d="M 361.5 282.5 C 362.906 282.973 363.573 283.973 363.5 285.5 C 362.094 285.027 361.427 284.027 361.5 282.5 Z" stroke-linecap="round" />
</g>
		<g transform="matrix(1 0 0 1 -109.85 -165.5)"  >
<path style="stroke: none; stroke-width: 1; stroke-dasharray: none; stroke-linecap: butt; stroke-dashoffset: 0; stroke-linejoin: miter; stroke-miterlimit: 4; fill: rgb(0,102,255); fill-rule: evenodd; opacity: 0.431;" vector-effect="non-scaling-stroke"  transform=" translate(-83.5, -285)" d="M 82.5 283.5 C 83.9063 283.973 84.573 284.973 84.5 286.5 C 83.0937 286.027 82.427 285.027 82.5 283.5 Z" stroke-linecap="round" />
</g>
		<g transform="matrix(1 0 0 1 31.65 -165)"  >
<path style="stroke: none; stroke-width: 1; stroke-dasharray: none; stroke-linecap: butt; stroke-dashoffset: 0; stroke-linejoin: miter; stroke-miterlimit: 4; fill: rgb(0,102,255); fill-rule: evenodd; opacity: 0.376;" vector-effect="non-scaling-stroke"  transform=" translate(-225, -285.5)" d="M 223.5 284.5 C 225.027 284.427 226.027 285.094 226.5 286.5 C 224.973 286.573 223.973 285.906 223.5 284.5 Z" stroke-linecap="round" />
</g>
		<g transform="matrix(1 0 0 1 -107.85 -162.5)"  >
<path style="stroke: none; stroke-width: 1; stroke-dasharray: none; stroke-linecap: butt; stroke-dashoffset: 0; stroke-linejoin: miter; stroke-miterlimit: 4; fill: rgb(0,102,255); fill-rule: evenodd; opacity: 0.38;" vector-effect="non-scaling-stroke"  transform=" translate(-85.5, -288)" d="M 84.5 286.5 C 85.9063 286.973 86.573 287.973 86.5 289.5 C 85.0937 289.027 84.427 288.027 84.5 286.5 Z" stroke-linecap="round" />
</g>
		<g transform="matrix(1 0 0 1 172.15 -162.5)"  >
<path style="stroke: none; stroke-width: 1; stroke-dasharray: none; stroke-linecap: butt; stroke-dashoffset: 0; stroke-linejoin: miter; stroke-miterlimit: 4; fill: rgb(0,102,255); fill-rule: evenodd; opacity: 0.529;" vector-effect="non-scaling-stroke"  transform=" translate(-365.5, -288)" d="M 364.5 286.5 C 365.906 286.973 366.573 287.973 366.5 289.5 C 365.094 289.027 364.427 288.027 364.5 286.5 Z" stroke-linecap="round" />
</g>
		<g transform="matrix(1 0 0 1 -105.85 -159.5)"  >
<path style="stroke: none; stroke-width: 1; stroke-dasharray: none; stroke-linecap: butt; stroke-dashoffset: 0; stroke-linejoin: miter; stroke-miterlimit: 4; fill: rgb(0,102,255); fill-rule: evenodd; opacity: 0.431;" vector-effect="non-scaling-stroke"  transform=" translate(-87.5, -291)" d="M 86.5 289.5 C 87.9063 289.973 88.573 290.973 88.5 292.5 C 87.0937 292.027 86.427 291.027 86.5 289.5 Z" stroke-linecap="round" />
</g>
		<g transform="matrix(1 0 0 1 174.15 -159.5)"  >
<path style="stroke: none; stroke-width: 1; stroke-dasharray: none; stroke-linecap: butt; stroke-dashoffset: 0; stroke-linejoin: miter; stroke-miterlimit: 4; fill: rgb(0,102,255); fill-rule: evenodd; opacity: 0.549;" vector-effect="non-scaling-stroke"  transform=" translate(-367.5, -291)" d="M 366.5 289.5 C 367.906 289.973 368.573 290.973 368.5 292.5 C 367.094 292.027 366.427 291.027 366.5 289.5 Z" stroke-linecap="round" />
</g>
		<g transform="matrix(1 0 0 1 49.15 -157.02)"  >
<path style="stroke: none; stroke-width: 1; stroke-dasharray: none; stroke-linecap: butt; stroke-dashoffset: 0; stroke-linejoin: miter; stroke-miterlimit: 4; fill: rgb(0,102,255); fill-rule: evenodd; opacity: 0.98;" vector-effect="non-scaling-stroke"  transform=" translate(-242.5, -293.48)" d="M 239.5 292.5 C 241.898 292.259 243.898 292.926 245.5 294.5 C 243.214 294.405 241.214 293.738 239.5 292.5 Z" stroke-linecap="round" />
</g>
		<g transform="matrix(1 0 0 1 -103.85 -156.5)"  >
<path style="stroke: none; stroke-width: 1; stroke-dasharray: none; stroke-linecap: butt; stroke-dashoffset: 0; stroke-linejoin: miter; stroke-miterlimit: 4; fill: rgb(0,102,255); fill-rule: evenodd; opacity: 0.588;" vector-effect="non-scaling-stroke"  transform=" translate(-89.5, -294)" d="M 88.5 292.5 C 89.9063 292.973 90.573 293.973 90.5 295.5 C 89.0937 295.027 88.427 294.027 88.5 292.5 Z" stroke-linecap="round" />
</g>
		<g transform="matrix(1 0 0 1 176.15 -156.5)"  >
<path style="stroke: none; stroke-width: 1; stroke-dasharray: none; stroke-linecap: butt; stroke-dashoffset: 0; stroke-linejoin: miter; stroke-miterlimit: 4; fill: rgb(0,102,255); fill-rule: evenodd; opacity: 0.443;" vector-effect="non-scaling-stroke"  transform=" translate(-369.5, -294)" d="M 368.5 292.5 C 369.906 292.973 370.573 293.973 370.5 295.5 C 369.094 295.027 368.427 294.027 368.5 292.5 Z" stroke-linecap="round" />
</g>
		<g transform="matrix(1 0 0 1 -100.35 -152)"  >
<path style="stroke: none; stroke-width: 1; stroke-dasharray: none; stroke-linecap: butt; stroke-dashoffset: 0; stroke-linejoin: miter; stroke-miterlimit: 4; fill: rgb(0,102,255); fill-rule: evenodd; opacity: 0.875;" vector-effect="non-scaling-stroke"  transform=" translate(-93, -298.5)" d="M 91.5 296.5 C 93.2624 297.262 94.2624 298.596 94.5 300.5 C 92.7376 299.738 91.7376 298.404 91.5 296.5 Z" stroke-linecap="round" />
</g>
		<g transform="matrix(1 0 0 1 180.15 -149.5)"  >
<path style="stroke: none; stroke-width: 1; stroke-dasharray: none; stroke-linecap: butt; stroke-dashoffset: 0; stroke-linejoin: miter; stroke-miterlimit: 4; fill: rgb(0,102,255); fill-rule: evenodd; opacity: 0.353;" vector-effect="non-scaling-stroke"  transform=" translate(-373.5, -301)" d="M 372.5 299.5 C 373.906 299.973 374.573 300.973 374.5 302.5 C 373.094 302.027 372.427 301.027 372.5 299.5 Z" stroke-linecap="round" />
</g>
		<g transform="matrix(1 0 0 1 -93.35 -144)"  >
<path style="stroke: none; stroke-width: 1; stroke-dasharray: none; stroke-linecap: butt; stroke-dashoffset: 0; stroke-linejoin: miter; stroke-miterlimit: 4; fill: rgb(0,102,255); fill-rule: evenodd; opacity: 0.745;" vector-effect="non-scaling-stroke"  transform=" translate(-100, -306.5)" d="M 98.5 304.5 C 100.262 305.262 101.262 306.596 101.5 308.5 C 99.7376 307.738 98.7376 306.404 98.5 304.5 Z" stroke-linecap="round" />
</g>
		<g transform="matrix(1 0 0 1 108.65 -141)"  >
<path style="stroke: none; stroke-width: 1; stroke-dasharray: none; stroke-linecap: butt; stroke-dashoffset: 0; stroke-linejoin: miter; stroke-miterlimit: 4; fill: rgb(0,102,255); fill-rule: evenodd; opacity: 0.533;" vector-effect="non-scaling-stroke"  transform=" translate(-302, -309.5)" d="M 300.5 308.5 C 302.027 308.427 303.027 309.094 303.5 310.5 C 301.973 310.573 300.973 309.906 300.5 308.5 Z" stroke-linecap="round" />
</g>
		<g transform="matrix(1 0 0 1 112.15 -138.5)"  >
<path style="stroke: none; stroke-width: 1; stroke-dasharray: none; stroke-linecap: butt; stroke-dashoffset: 0; stroke-linejoin: miter; stroke-miterlimit: 4; fill: rgb(0,102,255); fill-rule: evenodd; opacity: 0.886;" vector-effect="non-scaling-stroke"  transform=" translate(-305.5, -312)" d="M 303.5 310.5 C 305.404 310.738 306.738 311.738 307.5 313.5 C 305.596 313.262 304.262 312.262 303.5 310.5 Z" stroke-linecap="round" />
</g>
		<g transform="matrix(1 0 0 1 -163.83 -137.5)"  >
<path style="stroke: none; stroke-width: 1; stroke-dasharray: none; stroke-linecap: butt; stroke-dashoffset: 0; stroke-linejoin: miter; stroke-miterlimit: 4; fill: rgb(0,102,255); fill-rule: evenodd; opacity: 0.973;" vector-effect="non-scaling-stroke"  transform=" translate(-29.52, -313)" d="M 28.5 311.5 C 30.0481 311.821 30.7148 312.821 30.5 314.5 C 29.5987 313.71 28.9321 312.71 28.5 311.5 Z" stroke-linecap="round" />
</g>
		<g transform="matrix(1 0 0 1 186.1 -136.5)"  >
<path style="stroke: none; stroke-width: 1; stroke-dasharray: none; stroke-linecap: butt; stroke-dashoffset: 0; stroke-linejoin: miter; stroke-miterlimit: 4; fill: rgb(0,102,255); fill-rule: evenodd; opacity: 0.976;" vector-effect="non-scaling-stroke"  transform=" translate(-379.45, -314)" d="M 378.5 311.5 C 379.537 312.93 380.204 314.597 380.5 316.5 C 378.787 315.365 378.12 313.698 378.5 311.5 Z" stroke-linecap="round" />
</g>
		<g transform="matrix(1 0 0 1 -83.35 -133)"  >
<path style="stroke: none; stroke-width: 1; stroke-dasharray: none; stroke-linecap: butt; stroke-dashoffset: 0; stroke-linejoin: miter; stroke-miterlimit: 4; fill: rgb(0,102,255); fill-rule: evenodd; opacity: 0.827;" vector-effect="non-scaling-stroke"  transform=" translate(-110, -317.5)" d="M 107.5 314.5 C 109.914 315.911 111.581 317.911 112.5 320.5 C 110.086 319.089 108.419 317.089 107.5 314.5 Z" stroke-linecap="round" />
</g>
		<g transform="matrix(1 0 0 1 -160.83 -132.5)"  >
<path style="stroke: none; stroke-width: 1; stroke-dasharray: none; stroke-linecap: butt; stroke-dashoffset: 0; stroke-linejoin: miter; stroke-miterlimit: 4; fill: rgb(0,102,255); fill-rule: evenodd; opacity: 0.984;" vector-effect="non-scaling-stroke"  transform=" translate(-32.52, -318)" d="M 31.5 316.5 C 33.0481 316.821 33.7148 317.821 33.5 319.5 C 32.5987 318.71 31.9321 317.71 31.5 316.5 Z" stroke-linecap="round" />
</g>
		<g transform="matrix(1 0 0 1 -73.35 -122)"  >
<path style="stroke: none; stroke-width: 1; stroke-dasharray: none; stroke-linecap: butt; stroke-dashoffset: 0; stroke-linejoin: miter; stroke-miterlimit: 4; fill: rgb(0,102,255); fill-rule: evenodd; opacity: 0.855;" vector-effect="non-scaling-stroke"  transform=" translate(-120, -328.5)" d="M 117.5 325.5 C 119.914 326.911 121.581 328.911 122.5 331.5 C 120.086 330.089 118.419 328.089 117.5 325.5 Z" stroke-linecap="round" />
</g>
		<g transform="matrix(1 0 0 1 189.15 -126.5)"  >
<path style="stroke: none; stroke-width: 1; stroke-dasharray: none; stroke-linecap: butt; stroke-dashoffset: 0; stroke-linejoin: miter; stroke-miterlimit: 4; fill: rgb(0,102,255); fill-rule: evenodd; opacity: 0.733;" vector-effect="non-scaling-stroke"  transform=" translate(-382.5, -324)" d="M 381.5 320.5 C 382.924 322.515 383.59 324.848 383.5 327.5 C 382.076 325.485 381.41 323.152 381.5 320.5 Z" stroke-linecap="round" />
</g>
		<g transform="matrix(1 0 0 1 -62.85 -110.5)"  >
<path style="stroke: none; stroke-width: 1; stroke-dasharray: none; stroke-linecap: butt; stroke-dashoffset: 0; stroke-linejoin: miter; stroke-miterlimit: 4; fill: rgb(0,102,255); fill-rule: evenodd; opacity: 0.808;" vector-effect="non-scaling-stroke"  transform=" translate(-130.5, -340)" d="M 128.5 337.5 C 130.587 338.585 131.92 340.251 132.5 342.5 C 130.413 341.415 129.08 339.749 128.5 337.5 Z" stroke-linecap="round" />
</g>
		<g transform="matrix(1 0 0 1 -134.85 -99.5)"  >
<path style="stroke: none; stroke-width: 1; stroke-dasharray: none; stroke-linecap: butt; stroke-dashoffset: 0; stroke-linejoin: miter; stroke-miterlimit: 4; fill: rgb(0,102,255); fill-rule: evenodd; opacity: 0.004;" vector-effect="non-scaling-stroke"  transform=" translate(-58.5, -351)" d="M 57.5 349.5 C 58.9063 349.973 59.573 350.973 59.5 352.5 C 58.0937 352.027 57.427 351.027 57.5 349.5 Z" stroke-linecap="round" />
</g>
		<g transform="matrix(1 0 0 1 -51.35 -98)"  >
<path style="stroke: none; stroke-width: 1; stroke-dasharray: none; stroke-linecap: butt; stroke-dashoffset: 0; stroke-linejoin: miter; stroke-miterlimit: 4; fill: rgb(0,102,255); fill-rule: evenodd; opacity: 0.733;" vector-effect="non-scaling-stroke"  transform=" translate(-142, -352.5)" d="M 140.5 350.5 C 142.262 351.262 143.262 352.596 143.5 354.5 C 141.738 353.738 140.738 352.404 140.5 350.5 Z" stroke-linecap="round" />
</g>
		<g transform="matrix(1 0 0 1 -124.35 -88)"  >
<path style="stroke: none; stroke-width: 1; stroke-dasharray: none; stroke-linecap: butt; stroke-dashoffset: 0; stroke-linejoin: miter; stroke-miterlimit: 4; fill: rgb(0,102,255); fill-rule: evenodd; opacity: 0.004;" vector-effect="non-scaling-stroke"  transform=" translate(-69, -362.5)" d="M 67.5 360.5 C 69.2624 361.262 70.2624 362.596 70.5 364.5 C 68.7376 363.738 67.7376 362.404 67.5 360.5 Z" stroke-linecap="round" />
</g>
		<g transform="matrix(1 0 0 1 -41.35 -87)"  >
<path style="stroke: none; stroke-width: 1; stroke-dasharray: none; stroke-linecap: butt; stroke-dashoffset: 0; stroke-linejoin: miter; stroke-miterlimit: 4; fill: rgb(0,102,255); fill-rule: evenodd; opacity: 0.745;" vector-effect="non-scaling-stroke"  transform=" translate(-152, -363.5)" d="M 150.5 361.5 C 152.262 362.262 153.262 363.596 153.5 365.5 C 151.738 364.738 150.738 363.404 150.5 361.5 Z" stroke-linecap="round" />
</g>
		<g transform="matrix(1 0 0 1 -113.85 -76.5)"  >
<path style="stroke: none; stroke-width: 1; stroke-dasharray: none; stroke-linecap: butt; stroke-dashoffset: 0; stroke-linejoin: miter; stroke-miterlimit: 4; fill: rgb(0,102,255); fill-rule: evenodd; opacity: 0.008;" vector-effect="non-scaling-stroke"  transform=" translate(-79.5, -374)" d="M 78.5 372.5 C 79.9063 372.973 80.573 373.973 80.5 375.5 C 79.0937 375.027 78.427 374.027 78.5 372.5 Z" stroke-linecap="round" />
</g>
		<g transform="matrix(1 0 0 1 -30.35 -75)"  >
<path style="stroke: none; stroke-width: 1; stroke-dasharray: none; stroke-linecap: butt; stroke-dashoffset: 0; stroke-linejoin: miter; stroke-miterlimit: 4; fill: rgb(0,102,255); fill-rule: evenodd; opacity: 0.702;" vector-effect="non-scaling-stroke"  transform=" translate(-163, -375.5)" d="M 161.5 373.5 C 163.262 374.262 164.262 375.596 164.5 377.5 C 162.738 376.738 161.738 375.404 161.5 373.5 Z" stroke-linecap="round" />
</g>
		<g transform="matrix(1 0 0 1 -103.85 -65.5)"  >
<path style="stroke: none; stroke-width: 1; stroke-dasharray: none; stroke-linecap: butt; stroke-dashoffset: 0; stroke-linejoin: miter; stroke-miterlimit: 4; fill: rgb(0,102,255); fill-rule: evenodd; opacity: 0.008;" vector-effect="non-scaling-stroke"  transform=" translate(-89.5, -385)" d="M 88.5 383.5 C 89.9063 383.973 90.573 384.973 90.5 386.5 C 89.0937 386.027 88.427 385.027 88.5 383.5 Z" stroke-linecap="round" />
</g>
		<g transform="matrix(1 0 0 1 -26.35 -65.94)"  >
<path style="stroke: none; stroke-width: 1; stroke-dasharray: none; stroke-linecap: butt; stroke-dashoffset: 0; stroke-linejoin: miter; stroke-miterlimit: 4; fill: rgb(0,102,255); fill-rule: evenodd; opacity: 0.314;" vector-effect="non-scaling-stroke"  transform=" translate(-167, -384.56)" d="M 170.5 383.5 C 171.043 383.56 171.376 383.893 171.5 384.5 C 168.572 385.484 165.572 385.817 162.5 385.5 C 165.167 384.833 167.833 384.167 170.5 383.5 Z" stroke-linecap="round" />
</g>
		<g transform="matrix(1 0 0 1 124.15 -64.5)"  >
<path style="stroke: none; stroke-width: 1; stroke-dasharray: none; stroke-linecap: butt; stroke-dashoffset: 0; stroke-linejoin: miter; stroke-miterlimit: 4; fill: rgb(0,102,255); fill-rule: evenodd; opacity: 0.557;" vector-effect="non-scaling-stroke"  transform=" translate(-317.5, -386)" d="M 318.5 384.5 C 318.573 386.027 317.906 387.027 316.5 387.5 C 316.427 385.973 317.094 384.973 318.5 384.5 Z" stroke-linecap="round" />
</g>
		<g transform="matrix(1 0 0 1 120.65 -60)"  >
<path style="stroke: none; stroke-width: 1; stroke-dasharray: none; stroke-linecap: butt; stroke-dashoffset: 0; stroke-linejoin: miter; stroke-miterlimit: 4; fill: rgb(0,102,255); fill-rule: evenodd; opacity: 0.722;" vector-effect="non-scaling-stroke"  transform=" translate(-314, -390.5)" d="M 316.5 387.5 C 315.581 390.089 313.914 392.089 311.5 393.5 C 312.419 390.911 314.086 388.911 316.5 387.5 Z" stroke-linecap="round" />
</g>
		<g transform="matrix(1 0 0 1 115.15 -54.5)"  >
<path style="stroke: none; stroke-width: 1; stroke-dasharray: none; stroke-linecap: butt; stroke-dashoffset: 0; stroke-linejoin: miter; stroke-miterlimit: 4; fill: rgb(0,102,255); fill-rule: evenodd; opacity: 0.796;" vector-effect="non-scaling-stroke"  transform=" translate(-308.5, -396)" d="M 311.5 393.5 C 310.089 395.914 308.089 397.581 305.5 398.5 C 306.911 396.086 308.911 394.419 311.5 393.5 Z" stroke-linecap="round" />
</g>
		<g transform="matrix(1 0 0 1 110.65 -51)"  >
<path style="stroke: none; stroke-width: 1; stroke-dasharray: none; stroke-linecap: butt; stroke-dashoffset: 0; stroke-linejoin: miter; stroke-miterlimit: 4; fill: rgb(0,102,255); fill-rule: evenodd; opacity: 0.749;" vector-effect="non-scaling-stroke"  transform=" translate(-304, -399.5)" d="M 305.5 398.5 C 305.027 399.906 304.027 400.573 302.5 400.5 C 302.973 399.094 303.973 398.427 305.5 398.5 Z" stroke-linecap="round" />
</g>
		<g transform="matrix(1 0 0 1 107.65 -49)"  >
<path style="stroke: none; stroke-width: 1; stroke-dasharray: none; stroke-linecap: butt; stroke-dashoffset: 0; stroke-linejoin: miter; stroke-miterlimit: 4; fill: rgb(0,102,255); fill-rule: evenodd; opacity: 0.792;" vector-effect="non-scaling-stroke"  transform=" translate(-301, -401.5)" d="M 302.5 400.5 C 302.027 401.906 301.027 402.573 299.5 402.5 C 299.973 401.094 300.973 400.427 302.5 400.5 Z" stroke-linecap="round" />
</g>
		<g transform="matrix(1 0 0 1 81.65 -37.96)"  >
<path style="stroke: none; stroke-width: 1; stroke-dasharray: none; stroke-linecap: butt; stroke-dashoffset: 0; stroke-linejoin: miter; stroke-miterlimit: 4; fill: rgb(0,102,255); fill-rule: evenodd; opacity: 0.976;" vector-effect="non-scaling-stroke"  transform=" translate(-275, -412.54)" d="M 278.5 411.5 C 276.562 413.163 274.228 413.829 271.5 413.5 C 273.599 412.388 275.933 411.721 278.5 411.5 Z" stroke-linecap="round" />
</g>
		<g transform="matrix(1 0 0 1 -91.35 -19)"  >
<path style="stroke: none; stroke-width: 1; stroke-dasharray: none; stroke-linecap: butt; stroke-dashoffset: 0; stroke-linejoin: miter; stroke-miterlimit: 4; fill: rgb(0,102,255); fill-rule: evenodd; opacity: 0.949;" vector-effect="non-scaling-stroke"  transform=" translate(-102, -431.5)" d="M 106.5 430.5 C 103.781 431.913 100.781 432.58 97.5 432.5 C 100.219 431.087 103.219 430.42 106.5 430.5 Z" stroke-linecap="round" />
</g>
		<g transform="matrix(1 0 0 1 -99.85 -16.98)"  >
<path style="stroke: none; stroke-width: 1; stroke-dasharray: none; stroke-linecap: butt; stroke-dashoffset: 0; stroke-linejoin: miter; stroke-miterlimit: 4; fill: rgb(0,102,255); fill-rule: evenodd; opacity: 0.941;" vector-effect="non-scaling-stroke"  transform=" translate(-93.5, -433.52)" d="M 96.5 432.5 C 94.8984 434.074 92.8984 434.741 90.5 434.5 C 92.2143 433.262 94.2143 432.595 96.5 432.5 Z" stroke-linecap="round" />
</g>
		<g transform="matrix(1 0 0 1 161.15 -15)"  >
<path style="stroke: none; stroke-width: 1; stroke-dasharray: none; stroke-linecap: butt; stroke-dashoffset: 0; stroke-linejoin: miter; stroke-miterlimit: 4; fill: rgb(0,102,255); fill-rule: evenodd; opacity: 0.004;" vector-effect="non-scaling-stroke"  transform=" translate(-354.5, -435.5)" d="M 355.5 434.5 C 355.5 435.833 354.833 436.5 353.5 436.5 C 353.833 435.5 354.5 434.833 355.5 434.5 Z" stroke-linecap="round" />
</g>
		<g transform="matrix(1 0 0 1 -137.35 -1)"  >
<path style="stroke: none; stroke-width: 1; stroke-dasharray: none; stroke-linecap: butt; stroke-dashoffset: 0; stroke-linejoin: miter; stroke-miterlimit: 4; fill: rgb(0,102,255); fill-rule: evenodd; opacity: 0.855;" vector-effect="non-scaling-stroke"  transform=" translate(-56, -449.5)" d="M 57.5 448.5 C 57.0269 449.906 56.0269 450.573 54.5 450.5 C 54.9731 449.094 55.9731 448.427 57.5 448.5 Z" stroke-linecap="round" />
</g>
		<g transform="matrix(1 0 0 1 -142.35 2)"  >
<path style="stroke: none; stroke-width: 1; stroke-dasharray: none; stroke-linecap: butt; stroke-dashoffset: 0; stroke-linejoin: miter; stroke-miterlimit: 4; fill: rgb(0,102,255); fill-rule: evenodd; opacity: 0.753;" vector-effect="non-scaling-stroke"  transform=" translate(-51, -452.5)" d="M 52.5 451.5 C 52.0269 452.906 51.0269 453.573 49.5 453.5 C 49.9731 452.094 50.9731 451.427 52.5 451.5 Z" stroke-linecap="round" />
</g>
		<g transform="matrix(1 0 0 1 -145.85 4.5)"  >
<path style="stroke: none; stroke-width: 1; stroke-dasharray: none; stroke-linecap: butt; stroke-dashoffset: 0; stroke-linejoin: miter; stroke-miterlimit: 4; fill: rgb(0,102,255); fill-rule: evenodd; opacity: 0.71;" vector-effect="non-scaling-stroke"  transform=" translate(-47.5, -455)" d="M 49.5 453.5 C 48.7377 455.262 47.4044 456.262 45.5 456.5 C 46.2623 454.738 47.5956 453.738 49.5 453.5 Z" stroke-linecap="round" />
</g>
		<g transform="matrix(1 0 0 1 -150.35 8)"  >
<path style="stroke: none; stroke-width: 1; stroke-dasharray: none; stroke-linecap: butt; stroke-dashoffset: 0; stroke-linejoin: miter; stroke-miterlimit: 4; fill: rgb(0,102,255); fill-rule: evenodd; opacity: 0.976;" vector-effect="non-scaling-stroke"  transform=" translate(-43, -458.5)" d="M 45.5 456.5 C 44.4154 458.587 42.7488 459.92 40.5 460.5 C 41.5846 458.413 43.2512 457.08 45.5 456.5 Z" stroke-linecap="round" />
</g>
		<g transform="matrix(1 0 0 1 -156.35 13)"  >
<path style="stroke: none; stroke-width: 1; stroke-dasharray: none; stroke-linecap: butt; stroke-dashoffset: 0; stroke-linejoin: miter; stroke-miterlimit: 4; fill: rgb(0,102,255); fill-rule: evenodd; opacity: 0.906;" vector-effect="non-scaling-stroke"  transform=" translate(-37, -463.5)" d="M 40.5 460.5 C 38.7607 463.243 36.4274 465.243 33.5 466.5 C 35.2393 463.757 37.5726 461.757 40.5 460.5 Z" stroke-linecap="round" />
</g>
		<g transform="matrix(1 0 0 1 -166.85 23.5)"  >
<path style="stroke: none; stroke-width: 1; stroke-dasharray: none; stroke-linecap: butt; stroke-dashoffset: 0; stroke-linejoin: miter; stroke-miterlimit: 4; fill: rgb(0,102,255); fill-rule: evenodd; opacity: 0.69;" vector-effect="non-scaling-stroke"  transform=" translate(-26.5, -474)" d="M 27.5 472.5 C 27.573 474.027 26.9063 475.027 25.5 475.5 C 25.427 473.973 26.0937 472.973 27.5 472.5 Z" stroke-linecap="round" />
</g>
		<g transform="matrix(1 0 0 1 -170.85 28.5)"  >
<path style="stroke: none; stroke-width: 1; stroke-dasharray: none; stroke-linecap: butt; stroke-dashoffset: 0; stroke-linejoin: miter; stroke-miterlimit: 4; fill: rgb(0,102,255); fill-rule: evenodd; opacity: 0.549;" vector-effect="non-scaling-stroke"  transform=" translate(-22.5, -479)" d="M 23.5 477.5 C 23.573 479.027 22.9063 480.027 21.5 480.5 C 21.427 478.973 22.0937 477.973 23.5 477.5 Z" stroke-linecap="round" />
</g>
		<g transform="matrix(1 0 0 1 -173.35 32)"  >
<path style="stroke: none; stroke-width: 1; stroke-dasharray: none; stroke-linecap: butt; stroke-dashoffset: 0; stroke-linejoin: miter; stroke-miterlimit: 4; fill: rgb(0,102,255); fill-rule: evenodd; opacity: 0.714;" vector-effect="non-scaling-stroke"  transform=" translate(-20, -482.5)" d="M 21.5 480.5 C 21.2624 482.404 20.2624 483.738 18.5 484.5 C 18.7376 482.596 19.7376 481.262 21.5 480.5 Z" stroke-linecap="round" />
</g>
		<g transform="matrix(1 0 0 1 -175.85 35.5)"  >
<path style="stroke: none; stroke-width: 1; stroke-dasharray: none; stroke-linecap: butt; stroke-dashoffset: 0; stroke-linejoin: miter; stroke-miterlimit: 4; fill: rgb(0,102,255); fill-rule: evenodd; opacity: 0.396;" vector-effect="non-scaling-stroke"  transform=" translate(-17.5, -486)" d="M 18.5 484.5 C 18.573 486.027 17.9063 487.027 16.5 487.5 C 16.427 485.973 17.0937 484.973 18.5 484.5 Z" stroke-linecap="round" />
</g>
		<g transform="matrix(1 0 0 1 -178.85 40.5)"  >
<path style="stroke: none; stroke-width: 1; stroke-dasharray: none; stroke-linecap: butt; stroke-dashoffset: 0; stroke-linejoin: miter; stroke-miterlimit: 4; fill: rgb(0,102,255); fill-rule: evenodd; opacity: 0.408;" vector-effect="non-scaling-stroke"  transform=" translate(-14.5, -491)" d="M 15.5 489.5 C 15.573 491.027 14.9063 492.027 13.5 492.5 C 13.427 490.973 14.0937 489.973 15.5 489.5 Z" stroke-linecap="round" />
</g>
		<g transform="matrix(1 0 0 1 100.65 146.5)"  >
<path style="stroke: none; stroke-width: 1; stroke-dasharray: none; stroke-linecap: butt; stroke-dashoffset: 0; stroke-linejoin: miter; stroke-miterlimit: 4; fill: rgb(0,102,255); fill-rule: evenodd; opacity: 1;" vector-effect="non-scaling-stroke"  transform=" translate(-294, -597)" d="M 285.5 509.5 C 285.427 511.027 286.094 512.027 287.5 512.5 C 290.167 514.5 292.5 516.833 294.5 519.5 C 294.738 521.404 295.738 522.738 297.5 523.5 C 300.5 525.833 303.167 528.5 305.5 531.5 C 305.738 533.404 306.738 534.738 308.5 535.5 C 310.5 536.833 312.167 538.5 313.5 540.5 C 314.419 543.089 316.086 545.089 318.5 546.5 C 321.5 548.833 324.167 551.5 326.5 554.5 C 326.427 556.027 327.094 557.027 328.5 557.5 C 330.167 558.5 331.5 559.833 332.5 561.5 C 332.427 563.027 333.094 564.027 334.5 564.5 C 335.167 564.5 335.5 564.833 335.5 565.5 C 335.738 567.404 336.738 568.738 338.5 569.5 C 338.738 571.404 339.738 572.738 341.5 573.5 C 341.427 575.027 342.094 576.027 343.5 576.5 C 343.427 578.027 344.094 579.027 345.5 579.5 C 345.427 581.027 346.094 582.027 347.5 582.5 C 347.427 584.027 348.094 585.027 349.5 585.5 C 350.338 585.842 350.672 586.508 350.5 587.5 C 350.427 589.027 351.094 590.027 352.5 590.5 C 353.674 591.514 354.34 592.847 354.5 594.5 C 354.427 596.027 355.094 597.027 356.5 597.5 C 359.678 603.196 362.344 609.196 364.5 615.5 C 364.12 617.698 364.787 619.365 366.5 620.5 C 368.769 625.974 370.435 631.641 371.5 637.5 C 371.294 640.495 371.96 643.162 373.5 645.5 C 375.253 652.356 376.253 659.356 376.5 666.5 C 376.5 672.5 376.5 678.5 376.5 684.5 C 356.833 684.5 337.167 684.5 317.5 684.5 C 317.81 681.287 317.477 678.287 316.5 675.5 C 313 641.839 299.334 613.173 275.5 589.5 C 275.573 587.973 274.906 586.973 273.5 586.5 C 270.5 584.167 267.833 581.5 265.5 578.5 C 265.573 576.973 264.906 575.973 263.5 575.5 C 260.5 573.167 257.833 570.5 255.5 567.5 C 255.262 565.596 254.262 564.262 252.5 563.5 C 249.5 561.167 246.833 558.5 244.5 555.5 C 244.573 553.973 243.906 552.973 242.5 552.5 C 239.5 550.167 236.833 547.5 234.5 544.5 C 234.573 542.973 233.906 541.973 232.5 541.5 C 229.5 539.167 226.833 536.5 224.5 533.5 C 224.262 531.596 223.262 530.262 221.5 529.5 C 218.5 527.167 215.833 524.5 213.5 521.5 C 213.573 519.973 212.906 518.973 211.5 518.5 C 212.833 517.833 214.167 517.167 215.5 516.5 C 238.843 514.287 262.177 511.954 285.5 509.5 Z" stroke-linecap="round" />
</g>
		<g transform="matrix(1 0 0 1 93.15 60.5)"  >
<path style="stroke: none; stroke-width: 1; stroke-dasharray: none; stroke-linecap: butt; stroke-dashoffset: 0; stroke-linejoin: miter; stroke-miterlimit: 4; fill: rgb(0,102,255); fill-rule: evenodd; opacity: 0.639;" vector-effect="non-scaling-stroke"  transform=" translate(-286.5, -511)" d="M 285.5 509.5 C 286.906 509.973 287.573 510.973 287.5 512.5 C 286.094 512.027 285.427 511.027 285.5 509.5 Z" stroke-linecap="round" />
</g>
		<g transform="matrix(1 0 0 1 19.15 66.97)"  >
<path style="stroke: none; stroke-width: 1; stroke-dasharray: none; stroke-linecap: butt; stroke-dashoffset: 0; stroke-linejoin: miter; stroke-miterlimit: 4; fill: rgb(0,102,255); fill-rule: evenodd; opacity: 0.384;" vector-effect="non-scaling-stroke"  transform=" translate(-212.5, -517.47)" d="M 215.5 516.5 C 214.167 517.167 212.833 517.833 211.5 518.5 C 210.711 518.217 210.044 517.717 209.5 517 C 211.473 516.505 213.473 516.338 215.5 516.5 Z" stroke-linecap="round" />
</g>
		<g transform="matrix(1 0 0 1 19.15 69.5)"  >
<path style="stroke: none; stroke-width: 1; stroke-dasharray: none; stroke-linecap: butt; stroke-dashoffset: 0; stroke-linejoin: miter; stroke-miterlimit: 4; fill: rgb(0,102,255); fill-rule: evenodd; opacity: 0.008;" vector-effect="non-scaling-stroke"  transform=" translate(-212.5, -520)" d="M 211.5 518.5 C 212.906 518.973 213.573 519.973 213.5 521.5 C 212.094 521.027 211.427 520.027 211.5 518.5 Z" stroke-linecap="round" />
</g>
		<g transform="matrix(1 0 0 1 102.65 71)"  >
<path style="stroke: none; stroke-width: 1; stroke-dasharray: none; stroke-linecap: butt; stroke-dashoffset: 0; stroke-linejoin: miter; stroke-miterlimit: 4; fill: rgb(0,102,255); fill-rule: evenodd; opacity: 0.745;" vector-effect="non-scaling-stroke"  transform=" translate(-296, -521.5)" d="M 294.5 519.5 C 296.262 520.262 297.262 521.596 297.5 523.5 C 295.738 522.738 294.738 521.404 294.5 519.5 Z" stroke-linecap="round" />
</g>
		<g transform="matrix(1 0 0 1 -191.83 75)"  >
<path style="stroke: none; stroke-width: 1; stroke-dasharray: none; stroke-linecap: butt; stroke-dashoffset: 0; stroke-linejoin: miter; stroke-miterlimit: 4; fill: rgb(0,102,255); fill-rule: evenodd; opacity: 0.471;" vector-effect="non-scaling-stroke"  transform=" translate(-1.52, -525.5)" d="M 2.5 521.5 C 2.70621 524.495 2.03954 527.162 0.5 529.5 C 0.565131 526.572 1.2318 523.905 2.5 521.5 Z" stroke-linecap="round" />
</g>
		<g transform="matrix(1 0 0 1 29.65 81)"  >
<path style="stroke: none; stroke-width: 1; stroke-dasharray: none; stroke-linecap: butt; stroke-dashoffset: 0; stroke-linejoin: miter; stroke-miterlimit: 4; fill: rgb(0,102,255); fill-rule: evenodd; opacity: 0.004;" vector-effect="non-scaling-stroke"  transform=" translate(-223, -531.5)" d="M 221.5 529.5 C 223.262 530.262 224.262 531.596 224.5 533.5 C 222.738 532.738 221.738 531.404 221.5 529.5 Z" stroke-linecap="round" />
</g>
		<g transform="matrix(1 0 0 1 113.65 83)"  >
<path style="stroke: none; stroke-width: 1; stroke-dasharray: none; stroke-linecap: butt; stroke-dashoffset: 0; stroke-linejoin: miter; stroke-miterlimit: 4; fill: rgb(0,102,255); fill-rule: evenodd; opacity: 0.702;" vector-effect="non-scaling-stroke"  transform=" translate(-307, -533.5)" d="M 305.5 531.5 C 307.262 532.262 308.262 533.596 308.5 535.5 C 306.738 534.738 305.738 533.404 305.5 531.5 Z" stroke-linecap="round" />
</g>
		<g transform="matrix(1 0 0 1 122.65 93)"  >
<path style="stroke: none; stroke-width: 1; stroke-dasharray: none; stroke-linecap: butt; stroke-dashoffset: 0; stroke-linejoin: miter; stroke-miterlimit: 4; fill: rgb(0,102,255); fill-rule: evenodd; opacity: 0.859;" vector-effect="non-scaling-stroke"  transform=" translate(-316, -543.5)" d="M 313.5 540.5 C 315.914 541.911 317.581 543.911 318.5 546.5 C 316.086 545.089 314.419 543.089 313.5 540.5 Z" stroke-linecap="round" />
</g>
		<g transform="matrix(1 0 0 1 40.15 92.5)"  >
<path style="stroke: none; stroke-width: 1; stroke-dasharray: none; stroke-linecap: butt; stroke-dashoffset: 0; stroke-linejoin: miter; stroke-miterlimit: 4; fill: rgb(0,102,255); fill-rule: evenodd; opacity: 0.012;" vector-effect="non-scaling-stroke"  transform=" translate(-233.5, -543)" d="M 232.5 541.5 C 233.906 541.973 234.573 542.973 234.5 544.5 C 233.094 544.027 232.427 543.027 232.5 541.5 Z" stroke-linecap="round" />
</g>
		<g transform="matrix(1 0 0 1 50.15 103.5)"  >
<path style="stroke: none; stroke-width: 1; stroke-dasharray: none; stroke-linecap: butt; stroke-dashoffset: 0; stroke-linejoin: miter; stroke-miterlimit: 4; fill: rgb(0,102,255); fill-rule: evenodd; opacity: 0.004;" vector-effect="non-scaling-stroke"  transform=" translate(-243.5, -554)" d="M 242.5 552.5 C 243.906 552.973 244.573 553.973 244.5 555.5 C 243.094 555.027 242.427 554.027 242.5 552.5 Z" stroke-linecap="round" />
</g>
		<g transform="matrix(1 0 0 1 134.15 105.5)"  >
<path style="stroke: none; stroke-width: 1; stroke-dasharray: none; stroke-linecap: butt; stroke-dashoffset: 0; stroke-linejoin: miter; stroke-miterlimit: 4; fill: rgb(0,102,255); fill-rule: evenodd; opacity: 0.686;" vector-effect="non-scaling-stroke"  transform=" translate(-327.5, -556)" d="M 326.5 554.5 C 327.906 554.973 328.573 555.973 328.5 557.5 C 327.094 557.027 326.427 556.027 326.5 554.5 Z" stroke-linecap="round" />
</g>
		<g transform="matrix(1 0 0 1 140.15 112.5)"  >
<path style="stroke: none; stroke-width: 1; stroke-dasharray: none; stroke-linecap: butt; stroke-dashoffset: 0; stroke-linejoin: miter; stroke-miterlimit: 4; fill: rgb(0,102,255); fill-rule: evenodd; opacity: 0.761;" vector-effect="non-scaling-stroke"  transform=" translate(-333.5, -563)" d="M 332.5 561.5 C 333.906 561.973 334.573 562.973 334.5 564.5 C 333.094 564.027 332.427 563.027 332.5 561.5 Z" stroke-linecap="round" />
</g>
		<g transform="matrix(1 0 0 1 60.65 115)"  >
<path style="stroke: none; stroke-width: 1; stroke-dasharray: none; stroke-linecap: butt; stroke-dashoffset: 0; stroke-linejoin: miter; stroke-miterlimit: 4; fill: rgb(0,102,255); fill-rule: evenodd; opacity: 0.004;" vector-effect="non-scaling-stroke"  transform=" translate(-254, -565.5)" d="M 252.5 563.5 C 254.262 564.262 255.262 565.596 255.5 567.5 C 253.738 566.738 252.738 565.404 252.5 563.5 Z" stroke-linecap="round" />
</g>
		<g transform="matrix(1 0 0 1 143.65 117)"  >
<path style="stroke: none; stroke-width: 1; stroke-dasharray: none; stroke-linecap: butt; stroke-dashoffset: 0; stroke-linejoin: miter; stroke-miterlimit: 4; fill: rgb(0,102,255); fill-rule: evenodd; opacity: 0.886;" vector-effect="non-scaling-stroke"  transform=" translate(-337, -567.5)" d="M 335.5 565.5 C 337.262 566.262 338.262 567.596 338.5 569.5 C 336.738 568.738 335.738 567.404 335.5 565.5 Z" stroke-linecap="round" />
</g>
		<g transform="matrix(1 0 0 1 146.65 121)"  >
<path style="stroke: none; stroke-width: 1; stroke-dasharray: none; stroke-linecap: butt; stroke-dashoffset: 0; stroke-linejoin: miter; stroke-miterlimit: 4; fill: rgb(0,102,255); fill-rule: evenodd; opacity: 0.765;" vector-effect="non-scaling-stroke"  transform=" translate(-340, -571.5)" d="M 338.5 569.5 C 340.262 570.262 341.262 571.596 341.5 573.5 C 339.738 572.738 338.738 571.404 338.5 569.5 Z" stroke-linecap="round" />
</g>
		<g transform="matrix(1 0 0 1 149.15 124.5)"  >
<path style="stroke: none; stroke-width: 1; stroke-dasharray: none; stroke-linecap: butt; stroke-dashoffset: 0; stroke-linejoin: miter; stroke-miterlimit: 4; fill: rgb(0,102,255); fill-rule: evenodd; opacity: 0.663;" vector-effect="non-scaling-stroke"  transform=" translate(-342.5, -575)" d="M 341.5 573.5 C 342.906 573.973 343.573 574.973 343.5 576.5 C 342.094 576.027 341.427 575.027 341.5 573.5 Z" stroke-linecap="round" />
</g>
		<g transform="matrix(1 0 0 1 71.15 126.5)"  >
<path style="stroke: none; stroke-width: 1; stroke-dasharray: none; stroke-linecap: butt; stroke-dashoffset: 0; stroke-linejoin: miter; stroke-miterlimit: 4; fill: rgb(0,102,255); fill-rule: evenodd; opacity: 0.012;" vector-effect="non-scaling-stroke"  transform=" translate(-264.5, -577)" d="M 263.5 575.5 C 264.906 575.973 265.573 576.973 265.5 578.5 C 264.094 578.027 263.427 577.027 263.5 575.5 Z" stroke-linecap="round" />
</g>
		<g transform="matrix(1 0 0 1 -124.85 127.5)"  >
<path style="stroke: none; stroke-width: 1; stroke-dasharray: none; stroke-linecap: butt; stroke-dashoffset: 0; stroke-linejoin: miter; stroke-miterlimit: 4; fill: rgb(0,102,255); fill-rule: evenodd; opacity: 0.408;" vector-effect="non-scaling-stroke"  transform=" translate(-68.5, -578)" d="M 67.5 576.5 C 68.9063 576.973 69.573 577.973 69.5 579.5 C 68.0937 579.027 67.427 578.027 67.5 576.5 Z" stroke-linecap="round" />
</g>
		<g transform="matrix(1 0 0 1 151.15 127.5)"  >
<path style="stroke: none; stroke-width: 1; stroke-dasharray: none; stroke-linecap: butt; stroke-dashoffset: 0; stroke-linejoin: miter; stroke-miterlimit: 4; fill: rgb(0,102,255); fill-rule: evenodd; opacity: 0.698;" vector-effect="non-scaling-stroke"  transform=" translate(-344.5, -578)" d="M 343.5 576.5 C 344.906 576.973 345.573 577.973 345.5 579.5 C 344.094 579.027 343.427 578.027 343.5 576.5 Z" stroke-linecap="round" />
</g>
		<g transform="matrix(1 0 0 1 -122.85 130.5)"  >
<path style="stroke: none; stroke-width: 1; stroke-dasharray: none; stroke-linecap: butt; stroke-dashoffset: 0; stroke-linejoin: miter; stroke-miterlimit: 4; fill: rgb(0,102,255); fill-rule: evenodd; opacity: 0.498;" vector-effect="non-scaling-stroke"  transform=" translate(-70.5, -581)" d="M 69.5 579.5 C 70.9063 579.973 71.573 580.973 71.5 582.5 C 70.0937 582.027 69.427 581.027 69.5 579.5 Z" stroke-linecap="round" />
</g>
		<g transform="matrix(1 0 0 1 153.15 130.5)"  >
<path style="stroke: none; stroke-width: 1; stroke-dasharray: none; stroke-linecap: butt; stroke-dashoffset: 0; stroke-linejoin: miter; stroke-miterlimit: 4; fill: rgb(0,102,255); fill-rule: evenodd; opacity: 0.631;" vector-effect="non-scaling-stroke"  transform=" translate(-346.5, -581)" d="M 345.5 579.5 C 346.906 579.973 347.573 580.973 347.5 582.5 C 346.094 582.027 345.427 581.027 345.5 579.5 Z" stroke-linecap="round" />
</g>
		<g transform="matrix(1 0 0 1 155.15 133.5)"  >
<path style="stroke: none; stroke-width: 1; stroke-dasharray: none; stroke-linecap: butt; stroke-dashoffset: 0; stroke-linejoin: miter; stroke-miterlimit: 4; fill: rgb(0,102,255); fill-rule: evenodd; opacity: 0.561;" vector-effect="non-scaling-stroke"  transform=" translate(-348.5, -584)" d="M 347.5 582.5 C 348.906 582.973 349.573 583.973 349.5 585.5 C 348.094 585.027 347.427 584.027 347.5 582.5 Z" stroke-linecap="round" />
</g>
		<g transform="matrix(1 0 0 1 -117.35 136.5)"  >
<path style="stroke: none; stroke-width: 1; stroke-dasharray: none; stroke-linecap: butt; stroke-dashoffset: 0; stroke-linejoin: miter; stroke-miterlimit: 4; fill: rgb(0,102,255); fill-rule: evenodd; opacity: 0.761;" vector-effect="non-scaling-stroke"  transform=" translate(-76, -587)" d="M 73.5 584.5 C 75.5 585.833 77.1667 587.5 78.5 589.5 C 75.8333 588.833 74.1667 587.167 73.5 584.5 Z" stroke-linecap="round" />
</g>
		<g transform="matrix(1 0 0 1 81.15 137.5)"  >
<path style="stroke: none; stroke-width: 1; stroke-dasharray: none; stroke-linecap: butt; stroke-dashoffset: 0; stroke-linejoin: miter; stroke-miterlimit: 4; fill: rgb(0,102,255); fill-rule: evenodd; opacity: 0.004;" vector-effect="non-scaling-stroke"  transform=" translate(-274.5, -588)" d="M 273.5 586.5 C 274.906 586.973 275.573 587.973 275.5 589.5 C 274.094 589.027 273.427 588.027 273.5 586.5 Z" stroke-linecap="round" />
</g>
		<g transform="matrix(1 0 0 1 158.15 138.5)"  >
<path style="stroke: none; stroke-width: 1; stroke-dasharray: none; stroke-linecap: butt; stroke-dashoffset: 0; stroke-linejoin: miter; stroke-miterlimit: 4; fill: rgb(0,102,255); fill-rule: evenodd; opacity: 0.494;" vector-effect="non-scaling-stroke"  transform=" translate(-351.5, -589)" d="M 350.5 587.5 C 351.906 587.973 352.573 588.973 352.5 590.5 C 351.094 590.027 350.427 589.027 350.5 587.5 Z" stroke-linecap="round" />
</g>
		<g transform="matrix(1 0 0 1 -108.35 144.02)"  >
<path style="stroke: none; stroke-width: 1; stroke-dasharray: none; stroke-linecap: butt; stroke-dashoffset: 0; stroke-linejoin: miter; stroke-miterlimit: 4; fill: rgb(0,102,255); fill-rule: evenodd; opacity: 0.98;" vector-effect="non-scaling-stroke"  transform=" translate(-85, -594.52)" d="M 83.5 593.5 C 84.7095 593.932 85.7095 594.599 86.5 595.5 C 84.8212 595.715 83.8212 595.048 83.5 593.5 Z" stroke-linecap="round" />
</g>
		<g transform="matrix(1 0 0 1 162.15 145.5)"  >
<path style="stroke: none; stroke-width: 1; stroke-dasharray: none; stroke-linecap: butt; stroke-dashoffset: 0; stroke-linejoin: miter; stroke-miterlimit: 4; fill: rgb(0,102,255); fill-rule: evenodd; opacity: 0.322;" vector-effect="non-scaling-stroke"  transform=" translate(-355.5, -596)" d="M 354.5 594.5 C 355.906 594.973 356.573 595.973 356.5 597.5 C 355.094 597.027 354.427 596.027 354.5 594.5 Z" stroke-linecap="round" />
</g>
		<g transform="matrix(1 0 0 1 172.1 167.5)"  >
<path style="stroke: none; stroke-width: 1; stroke-dasharray: none; stroke-linecap: butt; stroke-dashoffset: 0; stroke-linejoin: miter; stroke-miterlimit: 4; fill: rgb(0,102,255); fill-rule: evenodd; opacity: 0.976;" vector-effect="non-scaling-stroke"  transform=" translate(-365.45, -618)" d="M 364.5 615.5 C 365.537 616.93 366.204 618.597 366.5 620.5 C 364.787 619.365 364.12 617.698 364.5 615.5 Z" stroke-linecap="round" />
</g>
		<g transform="matrix(1 0 0 1 -26.35 171.02)"  >
<path style="stroke: none; stroke-width: 1; stroke-dasharray: none; stroke-linecap: butt; stroke-dashoffset: 0; stroke-linejoin: miter; stroke-miterlimit: 4; fill: rgb(0,102,255); fill-rule: evenodd; opacity: 0.98;" vector-effect="non-scaling-stroke"  transform=" translate(-167, -621.52)" d="M 165.5 620.5 C 166.71 620.932 167.71 621.599 168.5 622.5 C 166.821 622.715 165.821 622.048 165.5 620.5 Z" stroke-linecap="round" />
</g>
		<g transform="matrix(1 0 0 1 -19.85 175.5)"  >
<path style="stroke: none; stroke-width: 1; stroke-dasharray: none; stroke-linecap: butt; stroke-dashoffset: 0; stroke-linejoin: miter; stroke-miterlimit: 4; fill: rgb(0,102,255); fill-rule: evenodd; opacity: 0.976;" vector-effect="non-scaling-stroke"  transform=" translate(-173.5, -626)" d="M 171.5 624.5 C 173.23 625.026 174.564 626.026 175.5 627.5 C 173.368 627.446 172.035 626.446 171.5 624.5 Z" stroke-linecap="round" />
</g>
		<g transform="matrix(1 0 0 1 -160.35 179.5)"  >
<path style="stroke: none; stroke-width: 1; stroke-dasharray: none; stroke-linecap: butt; stroke-dashoffset: 0; stroke-linejoin: miter; stroke-miterlimit: 4; fill: rgb(0,102,255); fill-rule: evenodd; opacity: 0.004;" vector-effect="non-scaling-stroke"  transform=" translate(-33, -630)" d="M 31.5 628.5 C 32.8333 629.167 33.8333 630.167 34.5 631.5 C 32.5 631.5 31.5 630.5 31.5 628.5 Z" stroke-linecap="round" />
</g>
		<g transform="matrix(1 0 0 1 -7.85 185.5)"  >
<path style="stroke: none; stroke-width: 1; stroke-dasharray: none; stroke-linecap: butt; stroke-dashoffset: 0; stroke-linejoin: miter; stroke-miterlimit: 4; fill: rgb(0,102,255); fill-rule: evenodd; opacity: 0.008;" vector-effect="non-scaling-stroke"  transform=" translate(-185.5, -636)" d="M 183.5 634.5 C 185.404 634.738 186.738 635.738 187.5 637.5 C 185.596 637.262 184.262 636.262 183.5 634.5 Z" stroke-linecap="round" />
</g>
		<g transform="matrix(1 0 0 1 -152.35 187)"  >
<path style="stroke: none; stroke-width: 1; stroke-dasharray: none; stroke-linecap: butt; stroke-dashoffset: 0; stroke-linejoin: miter; stroke-miterlimit: 4; fill: rgb(0,102,255); fill-rule: evenodd; opacity: 0.922;" vector-effect="non-scaling-stroke"  transform=" translate(-41, -637.5)" d="M 38.5 635.5 C 40.7488 636.08 42.4154 637.413 43.5 639.5 C 41.2512 638.92 39.5846 637.587 38.5 635.5 Z" stroke-linecap="round" />
</g>
		<g transform="matrix(1 0 0 1 -3.35 190)"  >
<path style="stroke: none; stroke-width: 1; stroke-dasharray: none; stroke-linecap: butt; stroke-dashoffset: 0; stroke-linejoin: miter; stroke-miterlimit: 4; fill: rgb(0,102,255); fill-rule: evenodd; opacity: 0.71;" vector-effect="non-scaling-stroke"  transform=" translate(-190, -640.5)" d="M 187.5 637.5 C 189.914 638.911 191.581 640.911 192.5 643.5 C 190.086 642.089 188.419 640.089 187.5 637.5 Z" stroke-linecap="round" />
</g>
		<g transform="matrix(1 0 0 1 -147.85 190.5)"  >
<path style="stroke: none; stroke-width: 1; stroke-dasharray: none; stroke-linecap: butt; stroke-dashoffset: 0; stroke-linejoin: miter; stroke-miterlimit: 4; fill: rgb(0,102,255); fill-rule: evenodd; opacity: 0.906;" vector-effect="non-scaling-stroke"  transform=" translate(-45.5, -641)" d="M 43.5 639.5 C 45.4044 639.738 46.7377 640.738 47.5 642.5 C 45.5956 642.262 44.2623 641.262 43.5 639.5 Z" stroke-linecap="round" />
</g>
		<g transform="matrix(1 0 0 1 -144.35 193)"  >
<path style="stroke: none; stroke-width: 1; stroke-dasharray: none; stroke-linecap: butt; stroke-dashoffset: 0; stroke-linejoin: miter; stroke-miterlimit: 4; fill: rgb(0,102,255); fill-rule: evenodd; opacity: 0.588;" vector-effect="non-scaling-stroke"  transform=" translate(-49, -643.5)" d="M 47.5 642.5 C 49.0269 642.427 50.0269 643.094 50.5 644.5 C 48.9731 644.573 47.9731 643.906 47.5 642.5 Z" stroke-linecap="round" />
</g>
		<g transform="matrix(1 0 0 1 179.14 191)"  >
<path style="stroke: none; stroke-width: 1; stroke-dasharray: none; stroke-linecap: butt; stroke-dashoffset: 0; stroke-linejoin: miter; stroke-miterlimit: 4; fill: rgb(0,102,255); fill-rule: evenodd; opacity: 0.569;" vector-effect="non-scaling-stroke"  transform=" translate(-372.48, -641.5)" d="M 371.5 637.5 C 372.768 639.905 373.435 642.572 373.5 645.5 C 371.96 643.162 371.294 640.495 371.5 637.5 Z" stroke-linecap="round" />
</g>
		<g transform="matrix(1 0 0 1 -141.35 195)"  >
<path style="stroke: none; stroke-width: 1; stroke-dasharray: none; stroke-linecap: butt; stroke-dashoffset: 0; stroke-linejoin: miter; stroke-miterlimit: 4; fill: rgb(0,102,255); fill-rule: evenodd; opacity: 0.522;" vector-effect="non-scaling-stroke"  transform=" translate(-52, -645.5)" d="M 50.5 644.5 C 52.0269 644.427 53.0269 645.094 53.5 646.5 C 51.9731 646.573 50.9731 645.906 50.5 644.5 Z" stroke-linecap="round" />
</g>
		<g transform="matrix(1 0 0 1 3.65 198)"  >
<path style="stroke: none; stroke-width: 1; stroke-dasharray: none; stroke-linecap: butt; stroke-dashoffset: 0; stroke-linejoin: miter; stroke-miterlimit: 4; fill: rgb(0,102,255); fill-rule: evenodd; opacity: 0.843;" vector-effect="non-scaling-stroke"  transform=" translate(-197, -648.5)" d="M 195.5 646.5 C 197.262 647.262 198.262 648.596 198.5 650.5 C 196.738 649.738 195.738 648.404 195.5 646.5 Z" stroke-linecap="round" />
</g>
		<g transform="matrix(1 0 0 1 -136.35 198)"  >
<path style="stroke: none; stroke-width: 1; stroke-dasharray: none; stroke-linecap: butt; stroke-dashoffset: 0; stroke-linejoin: miter; stroke-miterlimit: 4; fill: rgb(0,102,255); fill-rule: evenodd; opacity: 0.463;" vector-effect="non-scaling-stroke"  transform=" translate(-57, -648.5)" d="M 55.5 647.5 C 57.0269 647.427 58.0269 648.094 58.5 649.5 C 56.9731 649.573 55.9731 648.906 55.5 647.5 Z" stroke-linecap="round" />
</g>
		<g transform="matrix(1 0 0 1 6.65 202)"  >
<path style="stroke: none; stroke-width: 1; stroke-dasharray: none; stroke-linecap: butt; stroke-dashoffset: 0; stroke-linejoin: miter; stroke-miterlimit: 4; fill: rgb(0,102,255); fill-rule: evenodd; opacity: 0.929;" vector-effect="non-scaling-stroke"  transform=" translate(-200, -652.5)" d="M 198.5 650.5 C 200.262 651.262 201.262 652.596 201.5 654.5 C 199.738 653.738 198.738 652.404 198.5 650.5 Z" stroke-linecap="round" />
</g>
		<g transform="matrix(1 0 0 1 9.15 205.5)"  >
<path style="stroke: none; stroke-width: 1; stroke-dasharray: none; stroke-linecap: butt; stroke-dashoffset: 0; stroke-linejoin: miter; stroke-miterlimit: 4; fill: rgb(0,102,255); fill-rule: evenodd; opacity: 0.624;" vector-effect="non-scaling-stroke"  transform=" translate(-202.5, -656)" d="M 201.5 654.5 C 202.906 654.973 203.573 655.973 203.5 657.5 C 202.094 657.027 201.427 656.027 201.5 654.5 Z" stroke-linecap="round" />
</g>
		<g transform="matrix(1 0 0 1 -109.35 209)"  >
<path style="stroke: none; stroke-width: 1; stroke-dasharray: none; stroke-linecap: butt; stroke-dashoffset: 0; stroke-linejoin: miter; stroke-miterlimit: 4; fill: rgb(0,102,255); fill-rule: evenodd; opacity: 0.733;" vector-effect="non-scaling-stroke"  transform=" translate(-84, -659.5)" d="M 80.5 658.5 C 83.1522 658.41 85.4855 659.076 87.5 660.5 C 84.8478 660.59 82.5145 659.924 80.5 658.5 Z" stroke-linecap="round" />
</g>
		<g transform="matrix(1 0 0 1 11.15 208.5)"  >
<path style="stroke: none; stroke-width: 1; stroke-dasharray: none; stroke-linecap: butt; stroke-dashoffset: 0; stroke-linejoin: miter; stroke-miterlimit: 4; fill: rgb(0,102,255); fill-rule: evenodd; opacity: 0.576;" vector-effect="non-scaling-stroke"  transform=" translate(-204.5, -659)" d="M 203.5 657.5 C 204.906 657.973 205.573 658.973 205.5 660.5 C 204.094 660.027 203.427 659.027 203.5 657.5 Z" stroke-linecap="round" />
</g>
		<g transform="matrix(1 0 0 1 13.15 211.5)"  >
<path style="stroke: none; stroke-width: 1; stroke-dasharray: none; stroke-linecap: butt; stroke-dashoffset: 0; stroke-linejoin: miter; stroke-miterlimit: 4; fill: rgb(0,102,255); fill-rule: evenodd; opacity: 0.435;" vector-effect="non-scaling-stroke"  transform=" translate(-206.5, -662)" d="M 205.5 660.5 C 206.906 660.973 207.573 661.973 207.5 663.5 C 206.094 663.027 205.427 662.027 205.5 660.5 Z" stroke-linecap="round" />
</g>
		<g transform="matrix(1 0 0 1 -73.35 215.95)"  >
<path style="stroke: none; stroke-width: 1; stroke-dasharray: none; stroke-linecap: butt; stroke-dashoffset: 0; stroke-linejoin: miter; stroke-miterlimit: 4; fill: rgb(0,102,255); fill-rule: evenodd; opacity: 0.941;" vector-effect="non-scaling-stroke"  transform=" translate(-120, -666.45)" d="M 117.5 665.5 C 119.698 665.12 121.365 665.787 122.5 667.5 C 120.597 667.204 118.93 666.537 117.5 665.5 Z" stroke-linecap="round" />
</g>
		<g transform="matrix(1 0 0 1 17.15 218.5)"  >
<path style="stroke: none; stroke-width: 1; stroke-dasharray: none; stroke-linecap: butt; stroke-dashoffset: 0; stroke-linejoin: miter; stroke-miterlimit: 4; fill: rgb(0,102,255); fill-rule: evenodd; opacity: 0.294;" vector-effect="non-scaling-stroke"  transform=" translate(-210.5, -669)" d="M 209.5 667.5 C 210.906 667.973 211.573 668.973 211.5 670.5 C 210.094 670.027 209.427 669.027 209.5 667.5 Z" stroke-linecap="round" />
</g>
		<g transform="matrix(1 0 0 1 -61.35 221)"  >
<path style="stroke: none; stroke-width: 1; stroke-dasharray: none; stroke-linecap: butt; stroke-dashoffset: 0; stroke-linejoin: miter; stroke-miterlimit: 4; fill: rgb(0,102,255); fill-rule: evenodd; opacity: 0.424;" vector-effect="non-scaling-stroke"  transform=" translate(-132, -671.5)" d="M 130.5 670.5 C 132.027 670.427 133.027 671.094 133.5 672.5 C 131.973 672.573 130.973 671.906 130.5 670.5 Z" stroke-linecap="round" />
</g>
		<g transform="matrix(1 0 0 1 -56.35 224)"  >
<path style="stroke: none; stroke-width: 1; stroke-dasharray: none; stroke-linecap: butt; stroke-dashoffset: 0; stroke-linejoin: miter; stroke-miterlimit: 4; fill: rgb(0,102,255); fill-rule: evenodd; opacity: 0.655;" vector-effect="non-scaling-stroke"  transform=" translate(-137, -674.5)" d="M 135.5 673.5 C 137.027 673.427 138.027 674.094 138.5 675.5 C 136.973 675.573 135.973 674.906 135.5 673.5 Z" stroke-linecap="round" />
</g>
		<g transform="matrix(1 0 0 1 -51.35 228)"  >
<path style="stroke: none; stroke-width: 1; stroke-dasharray: none; stroke-linecap: butt; stroke-dashoffset: 0; stroke-linejoin: miter; stroke-miterlimit: 4; fill: rgb(0,102,255); fill-rule: evenodd; opacity: 0.859;" vector-effect="non-scaling-stroke"  transform=" translate(-142, -678.5)" d="M 139.5 676.5 C 141.749 677.08 143.415 678.413 144.5 680.5 C 142.251 679.92 140.585 678.587 139.5 676.5 Z" stroke-linecap="round" />
</g>
		<g transform="matrix(1 0 0 1 -45.35 234)"  >
<path style="stroke: none; stroke-width: 1; stroke-dasharray: none; stroke-linecap: butt; stroke-dashoffset: 0; stroke-linejoin: miter; stroke-miterlimit: 4; fill: rgb(0,102,255); fill-rule: evenodd; opacity: 0.004;" vector-effect="non-scaling-stroke"  transform=" translate(-148, -684.5)" d="M 146.5 682.5 C 148.262 683.262 149.262 684.596 149.5 686.5 C 147.738 685.738 146.738 684.404 146.5 682.5 Z" stroke-linecap="round" />
</g>
		<g transform="matrix(1 0 0 1 153.71 225.5)"  >
<path style="stroke: none; stroke-width: 1; stroke-dasharray: none; stroke-linecap: butt; stroke-dashoffset: 0; stroke-linejoin: miter; stroke-miterlimit: 4; fill: rgb(0,102,255); fill-rule: evenodd; opacity: 0.4;" vector-effect="non-scaling-stroke"  transform=" translate(-347.06, -676)" d="M 376.5 666.5 C 377.49 672.645 377.823 678.978 377.5 685.5 C 357.167 685.5 336.833 685.5 316.5 685.5 C 316.5 682.167 316.5 678.833 316.5 675.5 C 317.477 678.287 317.81 681.287 317.5 684.5 C 337.167 684.5 356.833 684.5 376.5 684.5 C 376.5 678.5 376.5 672.5 376.5 666.5 Z" stroke-linecap="round" />
</g>
		<g transform="matrix(1 0 0 1 -39.35 242)"  >
<path style="stroke: none; stroke-width: 1; stroke-dasharray: none; stroke-linecap: butt; stroke-dashoffset: 0; stroke-linejoin: miter; stroke-miterlimit: 4; fill: rgb(0,102,255); fill-rule: evenodd; opacity: 0.976;" vector-effect="non-scaling-stroke"  transform=" translate(-154, -692.5)" d="M 152.5 690.5 C 154.446 691.035 155.446 692.368 155.5 694.5 C 154.026 693.564 153.026 692.23 152.5 690.5 Z" stroke-linecap="round" />
</g>
		<g transform="matrix(1 0 0 1 -36.83 246.5)"  >
<path style="stroke: none; stroke-width: 1; stroke-dasharray: none; stroke-linecap: butt; stroke-dashoffset: 0; stroke-linejoin: miter; stroke-miterlimit: 4; fill: rgb(0,102,255); fill-rule: evenodd; opacity: 0.98;" vector-effect="non-scaling-stroke"  transform=" translate(-156.52, -697)" d="M 155.5 695.5 C 157.048 695.821 157.715 696.821 157.5 698.5 C 156.599 697.71 155.932 696.71 155.5 695.5 Z" stroke-linecap="round" />
</g>
		<g transform="matrix(1 0 0 1 -29.85 287)"  >
<path style="stroke: none; stroke-width: 1; stroke-dasharray: none; stroke-linecap: butt; stroke-dashoffset: 0; stroke-linejoin: miter; stroke-miterlimit: 4; fill: rgb(0,102,255); fill-rule: evenodd; opacity: 0.491;" vector-effect="non-scaling-stroke"  transform=" translate(-163.5, -737.5)" d="M 163.5 719.5 C 164.166 725.324 164.5 731.324 164.5 737.5 C 164.496 743.872 163.829 749.872 162.5 755.5 C 163.479 743.58 163.812 731.58 163.5 719.5 Z" stroke-linecap="round" />
</g>
		<g transform="matrix(1 0 0 1 37.65 308.02)"  >
<path style="stroke: none; stroke-width: 1; stroke-dasharray: none; stroke-linecap: butt; stroke-dashoffset: 0; stroke-linejoin: miter; stroke-miterlimit: 4; fill: rgb(0,102,255); fill-rule: evenodd; opacity: 0.984;" vector-effect="non-scaling-stroke"  transform=" translate(-231, -758.52)" d="M 229.5 757.5 C 230.71 757.932 231.71 758.599 232.5 759.5 C 230.821 759.715 229.821 759.048 229.5 757.5 Z" stroke-linecap="round" />
</g>
		<g transform="matrix(1 0 0 1 -40.35 310)"  >
<path style="stroke: none; stroke-width: 1; stroke-dasharray: none; stroke-linecap: butt; stroke-dashoffset: 0; stroke-linejoin: miter; stroke-miterlimit: 4; fill: rgb(0,102,255); fill-rule: evenodd; opacity: 0.851;" vector-effect="non-scaling-stroke"  transform=" translate(-153, -760.5)" d="M 154.5 759.5 C 154.027 760.906 153.027 761.573 151.5 761.5 C 151.973 760.094 152.973 759.427 154.5 759.5 Z" stroke-linecap="round" />
</g>
		<g transform="matrix(1 0 0 1 -43.35 312)"  >
<path style="stroke: none; stroke-width: 1; stroke-dasharray: none; stroke-linecap: butt; stroke-dashoffset: 0; stroke-linejoin: miter; stroke-miterlimit: 4; fill: rgb(0,102,255); fill-rule: evenodd; opacity: 0.878;" vector-effect="non-scaling-stroke"  transform=" translate(-150, -762.5)" d="M 151.5 761.5 C 151.027 762.906 150.027 763.573 148.5 763.5 C 148.973 762.094 149.973 761.427 151.5 761.5 Z" stroke-linecap="round" />
</g>
		<g transform="matrix(1 0 0 1 -46.85 314.5)"  >
<path style="stroke: none; stroke-width: 1; stroke-dasharray: none; stroke-linecap: butt; stroke-dashoffset: 0; stroke-linejoin: miter; stroke-miterlimit: 4; fill: rgb(0,102,255); fill-rule: evenodd; opacity: 0.671;" vector-effect="non-scaling-stroke"  transform=" translate(-146.5, -765)" d="M 148.5 763.5 C 147.738 765.262 146.404 766.262 144.5 766.5 C 145.262 764.738 146.596 763.738 148.5 763.5 Z" stroke-linecap="round" />
</g>
		<g transform="matrix(1 0 0 1 -53.35 320.5)"  >
<path style="stroke: none; stroke-width: 1; stroke-dasharray: none; stroke-linecap: butt; stroke-dashoffset: 0; stroke-linejoin: miter; stroke-miterlimit: 4; fill: rgb(0,102,255); fill-rule: evenodd; opacity: 0.58;" vector-effect="non-scaling-stroke"  transform=" translate(-140, -771)" d="M 142.5 768.5 C 141.167 770.5 139.5 772.167 137.5 773.5 C 138.167 770.833 139.833 769.167 142.5 768.5 Z" stroke-linecap="round" />
</g>
		<g transform="matrix(1 0 0 1 59.65 327)"  >
<path style="stroke: none; stroke-width: 1; stroke-dasharray: none; stroke-linecap: butt; stroke-dashoffset: 0; stroke-linejoin: miter; stroke-miterlimit: 4; fill: rgb(0,102,255); fill-rule: evenodd; opacity: 0.839;" vector-effect="non-scaling-stroke"  transform=" translate(-253, -777.5)" d="M 251.5 775.5 C 253.262 776.262 254.262 777.596 254.5 779.5 C 252.738 778.738 251.738 777.404 251.5 775.5 Z" stroke-linecap="round" />
</g>
		<g transform="matrix(1 0 0 1 -59.85 327.5)"  >
<path style="stroke: none; stroke-width: 1; stroke-dasharray: none; stroke-linecap: butt; stroke-dashoffset: 0; stroke-linejoin: miter; stroke-miterlimit: 4; fill: rgb(0,102,255); fill-rule: evenodd; opacity: 0.655;" vector-effect="non-scaling-stroke"  transform=" translate(-133.5, -778)" d="M 134.5 776.5 C 134.573 778.027 133.906 779.027 132.5 779.5 C 132.427 777.973 133.094 776.973 134.5 776.5 Z" stroke-linecap="round" />
</g>
		<g transform="matrix(1 0 0 1 -62.35 331)"  >
<path style="stroke: none; stroke-width: 1; stroke-dasharray: none; stroke-linecap: butt; stroke-dashoffset: 0; stroke-linejoin: miter; stroke-miterlimit: 4; fill: rgb(0,102,255); fill-rule: evenodd; opacity: 0.949;" vector-effect="non-scaling-stroke"  transform=" translate(-131, -781.5)" d="M 132.5 779.5 C 132.262 781.404 131.262 782.738 129.5 783.5 C 129.738 781.596 130.738 780.262 132.5 779.5 Z" stroke-linecap="round" />
</g>
		<g transform="matrix(1 0 0 1 62.15 330.5)"  >
<path style="stroke: none; stroke-width: 1; stroke-dasharray: none; stroke-linecap: butt; stroke-dashoffset: 0; stroke-linejoin: miter; stroke-miterlimit: 4; fill: rgb(0,102,255); fill-rule: evenodd; opacity: 0.667;" vector-effect="non-scaling-stroke"  transform=" translate(-255.5, -781)" d="M 254.5 779.5 C 255.906 779.973 256.573 780.973 256.5 782.5 C 255.094 782.027 254.427 781.027 254.5 779.5 Z" stroke-linecap="round" />
</g>
		<g transform="matrix(1 0 0 1 -64.85 334.5)"  >
<path style="stroke: none; stroke-width: 1; stroke-dasharray: none; stroke-linecap: butt; stroke-dashoffset: 0; stroke-linejoin: miter; stroke-miterlimit: 4; fill: rgb(0,102,255); fill-rule: evenodd; opacity: 0.408;" vector-effect="non-scaling-stroke"  transform=" translate(-128.5, -785)" d="M 129.5 783.5 C 129.573 785.027 128.906 786.027 127.5 786.5 C 127.427 784.973 128.094 783.973 129.5 783.5 Z" stroke-linecap="round" />
</g>
		<g transform="matrix(1 0 0 1 66.15 336.5)"  >
<path style="stroke: none; stroke-width: 1; stroke-dasharray: none; stroke-linecap: butt; stroke-dashoffset: 0; stroke-linejoin: miter; stroke-miterlimit: 4; fill: rgb(0,102,255); fill-rule: evenodd; opacity: 0.42;" vector-effect="non-scaling-stroke"  transform=" translate(-259.5, -787)" d="M 258.5 785.5 C 259.906 785.973 260.573 786.973 260.5 788.5 C 259.094 788.027 258.427 787.027 258.5 785.5 Z" stroke-linecap="round" />
</g>
		<g transform="matrix(1 0 0 1 -71.82 349)"  >
<path style="stroke: none; stroke-width: 1; stroke-dasharray: none; stroke-linecap: butt; stroke-dashoffset: 0; stroke-linejoin: miter; stroke-miterlimit: 4; fill: rgb(0,102,255); fill-rule: evenodd; opacity: 0.941;" vector-effect="non-scaling-stroke"  transform=" translate(-121.52, -799.5)" d="M 122.5 796.5 C 122.741 798.898 122.074 800.898 120.5 802.5 C 120.595 800.214 121.262 798.214 122.5 796.5 Z" stroke-linecap="round" />
</g>
		<g transform="matrix(1 0 0 1 75.18 362.5)"  >
<path style="stroke: none; stroke-width: 1; stroke-dasharray: none; stroke-linecap: butt; stroke-dashoffset: 0; stroke-linejoin: miter; stroke-miterlimit: 4; fill: rgb(0,102,255); fill-rule: evenodd; opacity: 0.404;" vector-effect="non-scaling-stroke"  transform=" translate(-268.53, -813)" d="M 267.5 807.5 C 269.082 810.876 269.749 814.542 269.5 818.5 C 268.313 815.054 267.646 811.387 267.5 807.5 Z" stroke-linecap="round" />
</g>
		<g transform="matrix(1 0 0 1 -64.35 416)"  >
<path style="stroke: none; stroke-width: 1; stroke-dasharray: none; stroke-linecap: butt; stroke-dashoffset: 0; stroke-linejoin: miter; stroke-miterlimit: 4; fill: rgb(0,102,255); fill-rule: evenodd; opacity: 0.949;" vector-effect="non-scaling-stroke"  transform=" translate(-129, -866.5)" d="M 127.5 864.5 C 129.446 865.035 130.446 866.368 130.5 868.5 C 129.026 867.564 128.026 866.23 127.5 864.5 Z" stroke-linecap="round" />
</g>
		<g transform="matrix(1 0 0 1 57.15 425.5)"  >
<path style="stroke: none; stroke-width: 1; stroke-dasharray: none; stroke-linecap: butt; stroke-dashoffset: 0; stroke-linejoin: miter; stroke-miterlimit: 4; fill: rgb(0,102,255); fill-rule: evenodd; opacity: 0.008;" vector-effect="non-scaling-stroke"  transform=" translate(-250.5, -876)" d="M 251.5 874.5 C 251.573 876.027 250.906 877.027 249.5 877.5 C 249.427 875.973 250.094 874.973 251.5 874.5 Z" stroke-linecap="round" />
</g>
		<g transform="matrix(1 0 0 1 -49.85 432.5)"  >
<path style="stroke: none; stroke-width: 1; stroke-dasharray: none; stroke-linecap: butt; stroke-dashoffset: 0; stroke-linejoin: miter; stroke-miterlimit: 4; fill: rgb(0,102,255); fill-rule: evenodd; opacity: 0.78;" vector-effect="non-scaling-stroke"  transform=" translate(-143.5, -883)" d="M 141.5 881.5 C 143.404 881.738 144.738 882.738 145.5 884.5 C 143.596 884.262 142.262 883.262 141.5 881.5 Z" stroke-linecap="round" />
</g>
		<g transform="matrix(1 0 0 1 -39.35 440)"  >
<path style="stroke: none; stroke-width: 1; stroke-dasharray: none; stroke-linecap: butt; stroke-dashoffset: 0; stroke-linejoin: miter; stroke-miterlimit: 4; fill: rgb(0,102,255); fill-rule: evenodd; opacity: 0.435;" vector-effect="non-scaling-stroke"  transform=" translate(-154, -890.5)" d="M 152.5 889.5 C 154.027 889.427 155.027 890.094 155.5 891.5 C 153.973 891.573 152.973 890.906 152.5 889.5 Z" stroke-linecap="round" />
</g>
</g>
</g>
</svg>